<?xml version="1.0" encoding="UTF-8"?>
<svg version="1.1" xmlns="http://www.w3.org/2000/svg" width="518" height="644">
<path d="M0 0 C32.34 0 64.68 0 98 0 C98 4.62 98 9.24 98 14 C121.1 14 144.2 14 168 14 C168 18.62 168 23.24 168 28 C181.86 28 195.72 28 210 28 C210 32.62 210 37.24 210 42 C214.62 42 219.24 42 224 42 C224 46.62 224 51.24 224 56 C233.24 56 242.48 56 252 56 C252 60.62 252 65.24 252 70 C261.24 70 270.48 70 280 70 C280 74.62 280 79.24 280 84 C284.62 84 289.24 84 294 84 C294 93.24 294 102.48 294 112 C298.62 112 303.24 112 308 112 C308 116.62 308 121.24 308 126 C312.62 126 317.24 126 322 126 C322 130.62 322 135.24 322 140 C326.62 140 331.24 140 336 140 C336 153.86 336 167.72 336 182 C340.62 182 345.24 182 350 182 C350 255.92 350 329.84 350 406 C345.38 406 340.76 406 336 406 C336 433.72 336 461.44 336 490 C331.38 490 326.76 490 322 490 C322 494.62 322 499.24 322 504 C317.38 504 312.76 504 308 504 C308 508.62 308 513.24 308 518 C303.38 518 298.76 518 294 518 C294 522.62 294 527.24 294 532 C289.38 532 284.76 532 280 532 C280 541.24 280 550.48 280 560 C275.38 560 270.76 560 266 560 C266 564.62 266 569.24 266 574 C261.38 574 256.76 574 252 574 C252 583.24 252 592.48 252 602 C247.38 602 242.76 602 238 602 C238 606.62 238 611.24 238 616 C228.76 616 219.52 616 210 616 C210 620.62 210 625.24 210 630 C196.14 630 182.28 630 168 630 C168 634.62 168 639.24 168 644 C131.04 644 94.08 644 56 644 C56 639.38 56 634.76 56 630 C42.14 630 28.28 630 14 630 C14 625.38 14 620.76 14 616 C4.76 616 -4.48 616 -14 616 C-14 611.38 -14 606.76 -14 602 C-18.62 602 -23.24 602 -28 602 C-28 592.76 -28 583.52 -28 574 C-32.62 574 -37.24 574 -42 574 C-42 569.38 -42 564.76 -42 560 C-46.62 560 -51.24 560 -56 560 C-56 550.76 -56 541.52 -56 532 C-60.62 532 -65.24 532 -70 532 C-70 527.38 -70 522.76 -70 518 C-74.62 518 -79.24 518 -84 518 C-84 513.38 -84 508.76 -84 504 C-88.62 504 -93.24 504 -98 504 C-98 499.38 -98 494.76 -98 490 C-102.62 490 -107.24 490 -112 490 C-112 462.28 -112 434.56 -112 406 C-116.62 406 -121.24 406 -126 406 C-126 396.76 -126 387.52 -126 378 C-130.62 378 -135.24 378 -140 378 C-140 373.38 -140 368.76 -140 364 C-144.62 364 -149.24 364 -154 364 C-154 322.42 -154 280.84 -154 238 C-158.62 238 -163.24 238 -168 238 C-168 210.28 -168 182.56 -168 154 C-163.38 154 -158.76 154 -154 154 C-154 140.14 -154 126.28 -154 112 C-149.38 112 -144.76 112 -140 112 C-140 107.38 -140 102.76 -140 98 C-121.52 98 -103.04 98 -84 98 C-84 93.38 -84 88.76 -84 84 C-79.38 84 -74.76 84 -70 84 C-70 65.52 -70 47.04 -70 28 C-65.38 28 -60.76 28 -56 28 C-56 23.38 -56 18.76 -56 14 C-37.52 14 -19.04 14 0 14 C0 9.38 0 4.76 0 0 Z " fill="#EABCA3" transform="translate(168,0)"/>
<path d="M0 0 C32.34 0 64.68 0 98 0 C98 4.62 98 9.24 98 14 C121.1 14 144.2 14 168 14 C168 18.62 168 23.24 168 28 C181.86 28 195.72 28 210 28 C210 32.62 210 37.24 210 42 C214.62 42 219.24 42 224 42 C224 46.62 224 51.24 224 56 C233.24 56 242.48 56 252 56 C252 60.62 252 65.24 252 70 C261.24 70 270.48 70 280 70 C280 74.62 280 79.24 280 84 C284.62 84 289.24 84 294 84 C294 93.24 294 102.48 294 112 C298.62 112 303.24 112 308 112 C308 116.62 308 121.24 308 126 C312.62 126 317.24 126 322 126 C322 130.62 322 135.24 322 140 C326.62 140 331.24 140 336 140 C336 153.86 336 167.72 336 182 C340.62 182 345.24 182 350 182 C350 255.92 350 329.84 350 406 C345.38 406 340.76 406 336 406 C336 410.62 336 415.24 336 420 C331.38 420 326.76 420 322 420 C322 429.24 322 438.48 322 448 C317.38 448 312.76 448 308 448 C308 387.94 308 327.88 308 266 C303.38 266 298.76 266 294 266 C294 261.38 294 256.76 294 252 C289.38 252 284.76 252 280 252 C280 247.38 280 242.76 280 238 C275.38 238 270.76 238 266 238 C266 233.38 266 228.76 266 224 C256.76 224 247.52 224 238 224 C238 219.38 238 214.76 238 210 C228.76 210 219.52 210 210 210 C210 205.38 210 200.76 210 196 C145.32 196 80.64 196 14 196 C14 200.62 14 205.24 14 210 C4.76 210 -4.48 210 -14 210 C-14 214.62 -14 219.24 -14 224 C-23.24 224 -32.48 224 -42 224 C-42 228.62 -42 233.24 -42 238 C-46.62 238 -51.24 238 -56 238 C-56 242.62 -56 247.24 -56 252 C-60.62 252 -65.24 252 -70 252 C-70 256.62 -70 261.24 -70 266 C-74.62 266 -79.24 266 -84 266 C-84 326.06 -84 386.12 -84 448 C-88.62 448 -93.24 448 -98 448 C-98 438.76 -98 429.52 -98 420 C-102.62 420 -107.24 420 -112 420 C-112 415.38 -112 410.76 -112 406 C-116.62 406 -121.24 406 -126 406 C-126 396.76 -126 387.52 -126 378 C-130.62 378 -135.24 378 -140 378 C-140 373.38 -140 368.76 -140 364 C-144.62 364 -149.24 364 -154 364 C-154 322.42 -154 280.84 -154 238 C-158.62 238 -163.24 238 -168 238 C-168 210.28 -168 182.56 -168 154 C-163.38 154 -158.76 154 -154 154 C-154 140.14 -154 126.28 -154 112 C-149.38 112 -144.76 112 -140 112 C-140 107.38 -140 102.76 -140 98 C-121.52 98 -103.04 98 -84 98 C-84 93.38 -84 88.76 -84 84 C-79.38 84 -74.76 84 -70 84 C-70 65.52 -70 47.04 -70 28 C-65.38 28 -60.76 28 -56 28 C-56 23.38 -56 18.76 -56 14 C-37.52 14 -19.04 14 0 14 C0 9.38 0 4.76 0 0 Z " fill="#36180A" transform="translate(168,0)"/>
<path d="M0 0 C9.24 0 18.48 0 28 0 C28 18.48 28 36.96 28 56 C14.14 56 0.28 56 -14 56 C-14 42.14 -14 28.28 -14 14 C-9.38 14 -4.76 14 0 14 C0 9.38 0 4.76 0 0 Z " fill="#36180A" transform="translate(364,350)"/>
<path d="M0 0 C9.24 0 18.48 0 28 0 C28 18.48 28 36.96 28 56 C14.14 56 0.28 56 -14 56 C-14 42.14 -14 28.28 -14 14 C-9.38 14 -4.76 14 0 14 C0 9.38 0 4.76 0 0 Z " fill="#36180A" transform="translate(182,350)"/>
<path d="M0 0 C18.48 0 36.96 0 56 0 C56 4.62 56 9.24 56 14 C65.24 14 74.48 14 84 14 C84 18.62 84 23.24 84 28 C56.28 28 28.56 28 0 28 C0 18.76 0 9.52 0 0 Z " fill="#36180A" transform="translate(336,308)"/>
<path d="M0 0 C18.48 0 36.96 0 56 0 C56 9.24 56 18.48 56 28 C28.28 28 0.56 28 -28 28 C-28 23.38 -28 18.76 -28 14 C-18.76 14 -9.52 14 0 14 C0 9.38 0 4.76 0 0 Z " fill="#36180A" transform="translate(168,308)"/>
<path d="M0 0 C36.96 0 73.92 0 112 0 C112 4.62 112 9.24 112 14 C75.04 14 38.08 14 0 14 C0 9.38 0 4.76 0 0 Z " fill="#000000" transform="translate(224,546)"/>
<path d="M0 0 C4.62 0 9.24 0 14 0 C14 23.1 14 46.2 14 70 C9.38 70 4.76 70 0 70 C0 46.9 0 23.8 0 0 Z " fill="#9F8070" transform="translate(294,364)"/>
<path d="M0 0 C4.62 0 9.24 0 14 0 C14 23.1 14 46.2 14 70 C9.38 70 4.76 70 0 70 C0 46.9 0 23.8 0 0 Z " fill="#9F8070" transform="translate(252,364)"/>
<path d="M0 0 C4.62 0 9.24 0 14 0 C14 9.24 14 18.48 14 28 C9.38 28 4.76 28 0 28 C0 18.76 0 9.52 0 0 Z " fill="#000000" transform="translate(364,364)"/>
<path d="M0 0 C4.62 0 9.24 0 14 0 C14 9.24 14 18.48 14 28 C9.38 28 4.76 28 0 28 C0 18.76 0 9.52 0 0 Z " fill="#000000" transform="translate(182,364)"/>
<path d="M0 0 C4.62 0 9.24 0 14 0 C14 4.62 14 9.24 14 14 C9.38 14 4.76 14 0 14 C0 9.38 0 4.76 0 0 Z " fill="#000000" transform="translate(336,532)"/>
<path d="M0 0 C4.62 0 9.24 0 14 0 C14 4.62 14 9.24 14 14 C9.38 14 4.76 14 0 14 C0 9.38 0 4.76 0 0 Z " fill="#9F8070" transform="translate(294,448)"/>
<path d="M0 0 C4.62 0 9.24 0 14 0 C14 4.62 14 9.24 14 14 C9.38 14 4.76 14 0 14 C0 9.38 0 4.76 0 0 Z " fill="#9F8070" transform="translate(252,448)"/>
<path d="M0 0 C4.62 0 9.24 0 14 0 C14 4.62 14 9.24 14 14 C9.38 14 4.76 14 0 14 C0 9.38 0 4.76 0 0 Z " fill="#9F8070" transform="translate(308,434)"/>
<path d="M0 0 C4.62 0 9.24 0 14 0 C14 4.62 14 9.24 14 14 C9.38 14 4.76 14 0 14 C0 9.38 0 4.76 0 0 Z " fill="#9F8070" transform="translate(238,434)"/>
<path d="M0 0 C4.62 0 9.24 0 14 0 C14 4.62 14 9.24 14 14 C9.38 14 4.76 14 0 14 C0 9.38 0 4.76 0 0 Z " fill="#FFFFFF" transform="translate(350,350)"/>
<path d="M0 0 C4.62 0 9.24 0 14 0 C14 4.62 14 9.24 14 14 C9.38 14 4.76 14 0 14 C0 9.38 0 4.76 0 0 Z " fill="#FFFFFF" transform="translate(168,350)"/>
</svg>
