<?xml version="1.0" encoding="UTF-8"?>
<svg version="1.1" xmlns="http://www.w3.org/2000/svg" width="390" height="442">
<path d="M0 0 C128.7 0 257.4 0 390 0 C390 30.03 390 60.06 390 91 C385.71 91 381.42 91 377 91 C377 142.48 377 193.96 377 247 C372.71 247 368.42 247 364 247 C364 294.19 364 341.38 364 390 C355.42 390 346.84 390 338 390 C338 394.29 338 398.58 338 403 C329.42 403 320.84 403 312 403 C312 407.29 312 411.58 312 416 C294.84 416 277.68 416 260 416 C260 420.29 260 424.58 260 429 C247.13 429 234.26 429 221 429 C221 433.29 221 437.58 221 442 C203.84 442 186.68 442 169 442 C169 437.71 169 433.42 169 429 C156.13 429 143.26 429 130 429 C130 424.71 130 420.42 130 416 C112.84 416 95.68 416 78 416 C78 411.71 78 407.42 78 403 C69.42 403 60.84 403 52 403 C52 398.71 52 394.42 52 390 C43.42 390 34.84 390 26 390 C26 342.81 26 295.62 26 247 C21.71 247 17.42 247 13 247 C13 195.52 13 144.04 13 91 C8.71 91 4.42 91 0 91 C0 60.97 0 30.94 0 0 Z " fill="#1C74B9" transform="translate(0,0)"/>
<path d="M0 0 C77.22 0 154.44 0 234 0 C234 12.87 234 25.74 234 39 C229.71 39 225.42 39 221 39 C221 43.29 221 47.58 221 52 C212.42 52 203.84 52 195 52 C195 56.29 195 60.58 195 65 C177.84 65 160.68 65 143 65 C143 69.29 143 73.58 143 78 C138.71 78 134.42 78 130 78 C130 82.29 130 86.58 130 91 C160.03 91 190.06 91 221 91 C221 133.9 221 176.8 221 221 C216.71 221 212.42 221 208 221 C208 225.29 208 229.58 208 234 C203.71 234 199.42 234 195 234 C195 238.29 195 242.58 195 247 C182.13 247 169.26 247 156 247 C156 251.29 156 255.58 156 260 C134.55 260 113.1 260 91 260 C91 255.71 91 251.42 91 247 C73.84 247 56.68 247 39 247 C39 242.71 39 238.42 39 234 C30.42 234 21.84 234 13 234 C13 212.55 13 191.1 13 169 C25.87 169 38.74 169 52 169 C52 181.87 52 194.74 52 208 C64.87 208 77.74 208 91 208 C91 212.29 91 216.58 91 221 C103.87 221 116.74 221 130 221 C130 216.71 130 212.42 130 208 C147.16 208 164.32 208 182 208 C182 182.26 182 156.52 182 130 C126.23 130 70.46 130 13 130 C13 117.13 13 104.26 13 91 C17.29 91 21.58 91 26 91 C26 86.71 26 82.42 26 78 C34.58 78 43.16 78 52 78 C52 73.71 52 69.42 52 65 C60.58 65 69.16 65 78 65 C78 60.71 78 56.42 78 52 C90.87 52 103.74 52 117 52 C117 47.71 117 43.42 117 39 C78.39 39 39.78 39 0 39 C0 26.13 0 13.26 0 0 Z " fill="#FFFFFF" transform="translate(78,91)"/>
<path d="M0 0 C51.48 0 102.96 0 156 0 C156 55.77 156 111.54 156 169 C151.71 169 147.42 169 143 169 C143 220.48 143 271.96 143 325 C134.42 325 125.84 325 117 325 C117 329.29 117 333.58 117 338 C108.42 338 99.84 338 91 338 C91 342.29 91 346.58 91 351 C73.84 351 56.68 351 39 351 C39 355.29 39 359.58 39 364 C26.13 364 13.26 364 0 364 C0 346.84 0 329.68 0 312 C12.87 312 25.74 312 39 312 C39 307.71 39 303.42 39 299 C51.87 299 64.74 299 78 299 C78 294.71 78 290.42 78 286 C82.29 286 86.58 286 91 286 C91 281.71 91 277.42 91 273 C95.29 273 99.58 273 104 273 C104 230.1 104 187.2 104 143 C73.97 143 43.94 143 13 143 C13 138.71 13 134.42 13 130 C17.29 130 21.58 130 26 130 C26 125.71 26 121.42 26 117 C43.16 117 60.32 117 78 117 C78 112.71 78 108.42 78 104 C86.58 104 95.16 104 104 104 C104 99.71 104 95.42 104 91 C108.29 91 112.58 91 117 91 C117 78.13 117 65.26 117 52 C78.39 52 39.78 52 0 52 C0 34.84 0 17.68 0 0 Z " fill="#1C87C7" transform="translate(195,39)"/>
</svg>
