<?xml version="1.0" encoding="UTF-8"?>
<svg version="1.1" xmlns="http://www.w3.org/2000/svg" width="440" height="660">
<path d="M0 0 C101.64 0 203.28 0 308 0 C308 7.26 308 14.52 308 22 C315.26 22 322.52 22 330 22 C330 29.26 330 36.52 330 44 C337.26 44 344.52 44 352 44 C352 51.26 352 58.52 352 66 C359.26 66 366.52 66 374 66 C374 102.3 374 138.6 374 176 C366.74 176 359.48 176 352 176 C352 183.26 352 190.52 352 198 C337.48 198 322.96 198 308 198 C308 212.52 308 227.04 308 242 C322.52 242 337.04 242 352 242 C352 256.52 352 271.04 352 286 C359.26 286 366.52 286 374 286 C374 315.04 374 344.08 374 374 C366.74 374 359.48 374 352 374 C352 388.52 352 403.04 352 418 C337.48 418 322.96 418 308 418 C308 425.26 308 432.52 308 440 C278.96 440 249.92 440 220 440 C220 432.74 220 425.48 220 418 C205.48 418 190.96 418 176 418 C176 403.48 176 388.96 176 374 C168.74 374 161.48 374 154 374 C154 446.6 154 519.2 154 594 C146.74 594 139.48 594 132 594 C132 601.26 132 608.52 132 616 C124.74 616 117.48 616 110 616 C110 623.26 110 630.52 110 638 C102.74 638 95.48 638 88 638 C88 645.26 88 652.52 88 660 C58.96 660 29.92 660 0 660 C0 652.74 0 645.48 0 638 C-7.26 638 -14.52 638 -22 638 C-22 630.74 -22 623.48 -22 616 C-29.26 616 -36.52 616 -44 616 C-44 608.74 -44 601.48 -44 594 C-51.26 594 -58.52 594 -66 594 C-66 557.7 -66 521.4 -66 484 C-58.74 484 -51.48 484 -44 484 C-44 476.74 -44 469.48 -44 462 C-29.48 462 -14.96 462 0 462 C0 447.48 0 432.96 0 418 C-14.52 418 -29.04 418 -44 418 C-44 403.48 -44 388.96 -44 374 C-51.26 374 -58.52 374 -66 374 C-66 344.96 -66 315.92 -66 286 C-58.74 286 -51.48 286 -44 286 C-44 271.48 -44 256.96 -44 242 C-29.48 242 -14.96 242 0 242 C0 227.48 0 212.96 0 198 C-14.52 198 -29.04 198 -44 198 C-44 190.74 -44 183.48 -44 176 C-51.26 176 -58.52 176 -66 176 C-66 139.7 -66 103.4 -66 66 C-58.74 66 -51.48 66 -44 66 C-44 58.74 -44 51.48 -44 44 C-36.74 44 -29.48 44 -22 44 C-22 36.74 -22 29.48 -22 22 C-14.74 22 -7.48 22 0 22 C0 14.74 0 7.48 0 0 Z M154 220 C154 241.78 154 263.56 154 286 C161.26 286 168.52 286 176 286 C176 271.48 176 256.96 176 242 C190.52 242 205.04 242 220 242 C220 234.74 220 227.48 220 220 C198.22 220 176.44 220 154 220 Z " fill="#A259FF" transform="translate(66,0)"/>
<path d="M0 0 C101.64 0 203.28 0 308 0 C308 7.26 308 14.52 308 22 C315.26 22 322.52 22 330 22 C330 29.26 330 36.52 330 44 C337.26 44 344.52 44 352 44 C352 51.26 352 58.52 352 66 C359.26 66 366.52 66 374 66 C374 102.3 374 138.6 374 176 C366.74 176 359.48 176 352 176 C352 183.26 352 190.52 352 198 C337.48 198 322.96 198 308 198 C308 205.26 308 212.52 308 220 C206.36 220 104.72 220 0 220 C0 212.74 0 205.48 0 198 C-14.52 198 -29.04 198 -44 198 C-44 190.74 -44 183.48 -44 176 C-51.26 176 -58.52 176 -66 176 C-66 139.7 -66 103.4 -66 66 C-58.74 66 -51.48 66 -44 66 C-44 58.74 -44 51.48 -44 44 C-36.74 44 -29.48 44 -22 44 C-22 36.74 -22 29.48 -22 22 C-14.74 22 -7.48 22 0 22 C0 14.74 0 7.48 0 0 Z " fill="#FF7262" transform="translate(66,0)"/>
<path d="M0 0 C50.82 0 101.64 0 154 0 C154 72.6 154 145.2 154 220 C103.18 220 52.36 220 0 220 C0 212.74 0 205.48 0 198 C-14.52 198 -29.04 198 -44 198 C-44 190.74 -44 183.48 -44 176 C-51.26 176 -58.52 176 -66 176 C-66 139.7 -66 103.4 -66 66 C-58.74 66 -51.48 66 -44 66 C-44 58.74 -44 51.48 -44 44 C-36.74 44 -29.48 44 -22 44 C-22 36.74 -22 29.48 -22 22 C-14.74 22 -7.48 22 0 22 C0 14.74 0 7.48 0 0 Z " fill="#F24E1E" transform="translate(66,0)"/>
<path d="M0 0 C50.82 0 101.64 0 154 0 C154 50.82 154 101.64 154 154 C146.74 154 139.48 154 132 154 C132 161.26 132 168.52 132 176 C124.74 176 117.48 176 110 176 C110 183.26 110 190.52 110 198 C102.74 198 95.48 198 88 198 C88 205.26 88 212.52 88 220 C58.96 220 29.92 220 0 220 C0 212.74 0 205.48 0 198 C-7.26 198 -14.52 198 -22 198 C-22 190.74 -22 183.48 -22 176 C-29.26 176 -36.52 176 -44 176 C-44 168.74 -44 161.48 -44 154 C-51.26 154 -58.52 154 -66 154 C-66 117.7 -66 81.4 -66 44 C-58.74 44 -51.48 44 -44 44 C-44 36.74 -44 29.48 -44 22 C-29.48 22 -14.96 22 0 22 C0 14.74 0 7.48 0 0 Z " fill="#0ACF83" transform="translate(66,440)"/>
<path d="M0 0 C29.04 0 58.08 0 88 0 C88 7.26 88 14.52 88 22 C102.52 22 117.04 22 132 22 C132 36.52 132 51.04 132 66 C139.26 66 146.52 66 154 66 C154 95.04 154 124.08 154 154 C146.74 154 139.48 154 132 154 C132 168.52 132 183.04 132 198 C117.48 198 102.96 198 88 198 C88 205.26 88 212.52 88 220 C58.96 220 29.92 220 0 220 C0 212.74 0 205.48 0 198 C-14.52 198 -29.04 198 -44 198 C-44 183.48 -44 168.96 -44 154 C-51.26 154 -58.52 154 -66 154 C-66 124.96 -66 95.92 -66 66 C-58.74 66 -51.48 66 -44 66 C-44 51.48 -44 36.96 -44 22 C-29.48 22 -14.96 22 0 22 C0 14.74 0 7.48 0 0 Z " fill="#1ABCFE" transform="translate(286,220)"/>
</svg>
