<svg width="30" height="30" viewBox="0 0 30 30" fill="none" xmlns="http://www.w3.org/2000/svg">
<g clip-path="url(#clip0_24_575)">
<path d="M0 0C9.9 0 19.8 0 30 0C30 9.9 30 19.8 30 30C20.1 30 10.2 30 0 30C0 20.1 0 10.2 0 0Z" fill="#FCFCFC"/>
<path d="M10.8333 2C13.5833 2 16.3333 2 19.1667 2C19.1667 2.33 19.1667 2.66 19.1667 3C19.7717 3 20.3767 3 21 3C21 3.275 21 3.55 21 3.83333C21.33 3.83333 21.66 3.83333 22 3.83333C22 4.16333 22 4.49333 22 4.83333C22.275 4.83333 22.55 4.83333 22.8333 4.83333C22.8333 5.10833 22.8333 5.38333 22.8333 5.66667C23.1633 5.66667 23.4933 5.66667 23.8333 5.66667C23.8333 5.99667 23.8333 6.32667 23.8333 6.66667C24.1633 6.66667 24.4933 6.66667 24.8333 6.66667C24.8333 6.94167 24.8333 7.21667 24.8333 7.5C25.1083 7.5 25.3833 7.5 25.6667 7.5C25.6667 8.16 25.6667 8.82 25.6667 9.5C25.9417 9.5 26.2167 9.5 26.5 9.5C26.5 10.105 26.5 10.71 26.5 11.3333C26.83 11.3333 27.16 11.3333 27.5 11.3333C27.5 14.0833 27.5 16.8333 27.5 19.6667C27.17 19.6667 26.84 19.6667 26.5 19.6667C26.5 20.2717 26.5 20.8767 26.5 21.5C26.225 21.5 25.95 21.5 25.6667 21.5C25.6667 21.775 25.6667 22.05 25.6667 22.3333C25.3367 22.3333 25.0067 22.3333 24.6667 22.3333C24.6667 22.6633 24.6667 22.9933 24.6667 23.3333C24.3917 23.3333 24.1167 23.3333 23.8333 23.3333C23.8333 23.6633 23.8333 23.9933 23.8333 24.3333C23.5033 24.3333 23.1733 24.3333 22.8333 24.3333C22.8333 24.6083 22.8333 24.8833 22.8333 25.1667C22.5583 25.1667 22.2833 25.1667 22 25.1667C22 25.4967 22 25.8267 22 26.1667C21.67 26.1667 21.34 26.1667 21 26.1667C21 26.4967 21 26.8267 21 27.1667C20.725 27.1667 20.45 27.1667 20.1667 27.1667C20.1667 27.4417 20.1667 27.7167 20.1667 28C19.5617 28 18.9567 28 18.3333 28C18.3333 26.185 18.3333 24.37 18.3333 22.5C18.0033 22.5 17.6733 22.5 17.3333 22.5C17.3333 22.17 17.3333 21.84 17.3333 21.5C17.0033 21.5 16.6733 21.5 16.3333 21.5C16.3333 21.17 16.3333 20.84 16.3333 20.5C17.5433 20.5 18.7533 20.5 20 20.5C20 20.225 20 19.95 20 19.6667C20.33 19.6667 20.66 19.6667 21 19.6667C21 19.3367 21 19.0067 21 18.6667C21.33 18.6667 21.66 18.6667 22 18.6667C22 18.3917 22 18.1167 22 17.8333C22.275 17.8333 22.55 17.8333 22.8333 17.8333C22.8333 15.9633 22.8333 14.0933 22.8333 12.1667C22.5583 12.1667 22.2833 12.1667 22 12.1667C22 11.8917 22 11.6167 22 11.3333C21.67 11.3333 21.34 11.3333 21 11.3333C21 11.0033 21 10.6733 21 10.3333C21.33 10.3333 21.66 10.3333 22 10.3333C22 9.39833 22 8.46333 22 7.5C21.065 7.5 20.13 7.5 19.1667 7.5C19.1667 7.83 19.1667 8.16 19.1667 8.5C18.8367 8.5 18.5067 8.5 18.1667 8.5C18.1667 8.775 18.1667 9.05 18.1667 9.33333C17.8917 9.33333 17.6167 9.33333 17.3333 9.33333C17.3333 9.05833 17.3333 8.78333 17.3333 8.5C15.7933 8.5 14.2533 8.5 12.6667 8.5C12.6667 8.775 12.6667 9.05 12.6667 9.33333C12.3917 9.33333 12.1167 9.33333 11.8333 9.33333C11.8333 9.05833 11.8333 8.78333 11.8333 8.5C11.5033 8.5 11.1733 8.5 10.8333 8.5C10.8333 8.17 10.8333 7.84 10.8333 7.5C9.89833 7.5 8.96333 7.5 8 7.5C8 8.435 8 9.37 8 10.3333C8.33 10.3333 8.66 10.3333 9 10.3333C9 10.6633 9 10.9933 9 11.3333C8.67 11.3333 8.34 11.3333 8 11.3333C8 11.6083 8 11.8833 8 12.1667C7.725 12.1667 7.45 12.1667 7.16667 12.1667C7.16667 14.0367 7.16667 15.9067 7.16667 17.8333C7.44167 17.8333 7.71666 17.8333 8 17.8333C8 18.1083 8 18.3833 8 18.6667C8.33 18.6667 8.66 18.6667 9 18.6667C9 18.9967 9 19.3267 9 19.6667C9.33 19.6667 9.66 19.6667 10 19.6667C10 19.9417 10 20.2167 10 20.5C11.21 20.5 12.42 20.5 13.6667 20.5C13.6667 20.83 13.6667 21.16 13.6667 21.5C13.3367 21.5 13.0067 21.5 12.6667 21.5C12.6667 21.83 12.6667 22.16 12.6667 22.5C12.3367 22.5 12.0067 22.5 11.6667 22.5C11.6667 22.775 11.6667 23.05 11.6667 23.3333C11.1167 23.3333 10.5667 23.3333 10 23.3333C10 23.0583 10 22.7833 10 22.5C9.67 22.5 9.34 22.5 9 22.5C9 22.17 9 21.84 9 21.5C8.67 21.5 8.34 21.5 8 21.5C8 21.225 8 20.95 8 20.6667C7.395 20.6667 6.79 20.6667 6.16667 20.6667C6.16667 20.9417 6.16667 21.2167 6.16667 21.5C6.49667 21.5 6.82667 21.5 7.16667 21.5C7.16667 21.775 7.16667 22.05 7.16667 22.3333C7.44167 22.3333 7.71666 22.3333 8 22.3333C8 22.6633 8 22.9933 8 23.3333C8.33 23.3333 8.66 23.3333 9 23.3333C9 23.6633 9 23.9933 9 24.3333C10.21 24.3333 11.42 24.3333 12.6667 24.3333C12.6667 25.5433 12.6667 26.7533 12.6667 28C12.0617 28 11.4567 28 10.8333 28C10.8333 27.67 10.8333 27.34 10.8333 27C10.2283 27 9.62333 27 9 27C9 26.725 9 26.45 9 26.1667C8.67 26.1667 8.34 26.1667 8 26.1667C8 25.8367 8 25.5067 8 25.1667C7.725 25.1667 7.45 25.1667 7.16667 25.1667C7.16667 24.8917 7.16667 24.6167 7.16667 24.3333C6.83667 24.3333 6.50667 24.3333 6.16667 24.3333C6.16667 24.0033 6.16667 23.6733 6.16667 23.3333C5.89167 23.3333 5.61667 23.3333 5.33333 23.3333C5.33333 23.0033 5.33333 22.6733 5.33333 22.3333C5.00333 22.3333 4.67333 22.3333 4.33333 22.3333C4.33333 22.0583 4.33333 21.7833 4.33333 21.5C4.05833 21.5 3.78333 21.5 3.5 21.5C3.5 20.895 3.5 20.29 3.5 19.6667C3.17 19.6667 2.84 19.6667 2.5 19.6667C2.5 16.9167 2.5 14.1667 2.5 11.3333C2.83 11.3333 3.16 11.3333 3.5 11.3333C3.5 10.7283 3.5 10.1233 3.5 9.5C3.775 9.5 4.05 9.5 4.33333 9.5C4.33333 8.84 4.33333 8.18 4.33333 7.5C4.60833 7.5 4.88333 7.5 5.16667 7.5C5.16667 7.225 5.16667 6.95 5.16667 6.66667C5.49667 6.66667 5.82667 6.66667 6.16667 6.66667C6.16667 6.33667 6.16667 6.00667 6.16667 5.66667C6.49667 5.66667 6.82667 5.66667 7.16667 5.66667C7.16667 5.39167 7.16667 5.11667 7.16667 4.83333C7.44167 4.83333 7.71666 4.83333 8 4.83333C8 4.50333 8 4.17333 8 3.83333C8.33 3.83333 8.66 3.83333 9 3.83333C9 3.55833 9 3.28333 9 3C9.605 3 10.21 3 10.8333 3C10.8333 2.67 10.8333 2.34 10.8333 2Z" fill="#030202"/>
<path d="M8.00002 7.5C8.93502 7.5 9.87002 7.5 10.8334 7.5C10.8334 7.83 10.8334 8.16 10.8334 8.5C11.1634 8.5 11.4934 8.5 11.8334 8.5C11.8334 8.775 11.8334 9.05 11.8334 9.33333C12.1084 9.33333 12.3834 9.33333 12.6667 9.33333C12.6667 9.05833 12.6667 8.78333 12.6667 8.5C14.2067 8.5 15.7467 8.5 17.3334 8.5C17.3334 8.775 17.3334 9.05 17.3334 9.33333C17.6084 9.33333 17.8834 9.33333 18.1667 9.33333C18.1667 9.05833 18.1667 8.78333 18.1667 8.5C18.4967 8.5 18.8267 8.5 19.1667 8.5C19.1667 8.17 19.1667 7.84 19.1667 7.5C20.1017 7.5 21.0367 7.5 22 7.5C22 8.435 22 9.37 22 10.3333C21.67 10.3333 21.34 10.3333 21 10.3333C21 10.6633 21 10.9933 21 11.3333C21.33 11.3333 21.66 11.3333 22 11.3333C22 11.6083 22 11.8833 22 12.1667C22.275 12.1667 22.55 12.1667 22.8334 12.1667C22.8334 14.0367 22.8334 15.9067 22.8334 17.8333C22.5584 17.8333 22.2834 17.8333 22 17.8333C22 18.1083 22 18.3833 22 18.6667C21.67 18.6667 21.34 18.6667 21 18.6667C21 18.9967 21 19.3267 21 19.6667C20.67 19.6667 20.34 19.6667 20 19.6667C20 19.9417 20 20.2167 20 20.5C18.79 20.5 17.58 20.5 16.3334 20.5C16.3334 20.83 16.3334 21.16 16.3334 21.5C16.6634 21.5 16.9934 21.5 17.3334 21.5C17.3334 21.83 17.3334 22.16 17.3334 22.5C17.6084 22.5 17.8834 22.5 18.1667 22.5C18.1667 24.315 18.1667 26.13 18.1667 28C17.2901 28.0034 16.4136 28.0069 15.5104 28.0104C15.2335 28.0119 14.9566 28.0135 14.6713 28.015C14.4551 28.0154 14.239 28.0158 14.0163 28.0163C13.902 28.0171 13.7877 28.018 13.6699 28.0189C13.391 28.0189 13.1121 28.0104 12.8334 28C12.6667 27.8333 12.6667 27.8333 12.6478 27.4931C12.6486 27.3474 12.6495 27.2016 12.6504 27.0514C12.6508 26.9097 12.6512 26.768 12.6517 26.622C12.6532 26.4408 12.6547 26.2596 12.6563 26.0729C12.6597 25.4989 12.6631 24.9248 12.6667 24.3333C11.4567 24.3333 10.2467 24.3333 9.00002 24.3333C9.00002 24.0033 9.00002 23.6733 9.00002 23.3333C8.67002 23.3333 8.34002 23.3333 8.00002 23.3333C8.00002 23.0033 8.00002 22.6733 8.00002 22.3333C7.72502 22.3333 7.45002 22.3333 7.16669 22.3333C7.16669 22.0583 7.16669 21.7833 7.16669 21.5C6.83669 21.5 6.50669 21.5 6.16669 21.5C6.16669 21.225 6.16669 20.95 6.16669 20.6667C6.77169 20.6667 7.37669 20.6667 8.00002 20.6667C8.00002 20.9417 8.00002 21.2167 8.00002 21.5C8.33002 21.5 8.66002 21.5 9.00002 21.5C9.00002 21.83 9.00002 22.16 9.00002 22.5C9.33002 22.5 9.66002 22.5 10 22.5C10 22.775 10 23.05 10 23.3333C10.55 23.3333 11.1 23.3333 11.6667 23.3333C11.6667 23.0583 11.6667 22.7833 11.6667 22.5C11.9967 22.5 12.3267 22.5 12.6667 22.5C12.6667 22.17 12.6667 21.84 12.6667 21.5C12.9967 21.5 13.3267 21.5 13.6667 21.5C13.6667 21.17 13.6667 20.84 13.6667 20.5C12.4567 20.5 11.2467 20.5 10 20.5C10 20.225 10 19.95 10 19.6667C9.67002 19.6667 9.34002 19.6667 9.00002 19.6667C9.00002 19.3367 9.00002 19.0067 9.00002 18.6667C8.67002 18.6667 8.34002 18.6667 8.00002 18.6667C8.00002 18.3917 8.00002 18.1167 8.00002 17.8333C7.72502 17.8333 7.45002 17.8333 7.16669 17.8333C7.16669 15.9633 7.16669 14.0933 7.16669 12.1667C7.44169 12.1667 7.71669 12.1667 8.00002 12.1667C8.00002 11.8917 8.00002 11.6167 8.00002 11.3333C8.33002 11.3333 8.66002 11.3333 9.00002 11.3333C9.00002 11.0033 9.00002 10.6733 9.00002 10.3333C8.67002 10.3333 8.34002 10.3333 8.00002 10.3333C8.00002 9.39833 8.00002 8.46333 8.00002 7.5Z" fill="#FCFCFC"/>
</g>
<defs>
<clipPath id="clip0_24_575">
<rect width="30" height="30" fill="white"/>
</clipPath>
</defs>
</svg>
