<?xml version="1.0" encoding="UTF-8"?>
<svg version="1.1" xmlns="http://www.w3.org/2000/svg" width="650" height="650">
<path d="M0 0 C25.74 0 51.48 0 78 0 C78 4.29 78 8.58 78 13 C82.29 13 86.58 13 91 13 C91 34.45 91 55.9 91 78 C103.87 78 116.74 78 130 78 C130 82.29 130 86.58 130 91 C134.29 91 138.58 91 143 91 C143 95.29 143 99.58 143 104 C151.58 104 160.16 104 169 104 C169 108.29 169 112.58 169 117 C177.58 117 186.16 117 195 117 C195 121.29 195 125.58 195 130 C229.32 130 263.64 130 299 130 C299 134.29 299 138.58 299 143 C303.29 143 307.58 143 312 143 C312 147.29 312 151.58 312 156 C316.29 156 320.58 156 325 156 C325 173.16 325 190.32 325 208 C320.71 208 316.42 208 312 208 C312 212.29 312 216.58 312 221 C307.71 221 303.42 221 299 221 C299 225.29 299 229.58 299 234 C290.42 234 281.84 234 273 234 C273 285.48 273 336.96 273 390 C281.58 390 290.16 390 299 390 C299 394.29 299 398.58 299 403 C303.29 403 307.58 403 312 403 C312 407.29 312 411.58 312 416 C316.29 416 320.58 416 325 416 C325 433.16 325 450.32 325 468 C320.71 468 316.42 468 312 468 C312 472.29 312 476.58 312 481 C307.71 481 303.42 481 299 481 C299 485.29 299 489.58 299 494 C260.39 494 221.78 494 182 494 C182 498.29 182 502.58 182 507 C177.71 507 173.42 507 169 507 C169 511.29 169 515.58 169 520 C160.42 520 151.84 520 143 520 C143 524.29 143 528.58 143 533 C134.42 533 125.84 533 117 533 C117 537.29 117 541.58 117 546 C108.42 546 99.84 546 91 546 C91 567.45 91 588.9 91 611 C86.71 611 82.42 611 78 611 C78 615.29 78 619.58 78 624 C52.26 624 26.52 624 0 624 C0 619.71 0 615.42 0 611 C-4.29 611 -8.58 611 -13 611 C-13 589.55 -13 568.1 -13 546 C-25.87 546 -38.74 546 -52 546 C-52 541.71 -52 537.42 -52 533 C-56.29 533 -60.58 533 -65 533 C-65 528.71 -65 524.42 -65 520 C-73.58 520 -82.16 520 -91 520 C-91 515.71 -91 511.42 -91 507 C-99.58 507 -108.16 507 -117 507 C-117 502.71 -117 498.42 -117 494 C-151.32 494 -185.64 494 -221 494 C-221 489.71 -221 485.42 -221 481 C-225.29 481 -229.58 481 -234 481 C-234 476.71 -234 472.42 -234 468 C-238.29 468 -242.58 468 -247 468 C-247 450.84 -247 433.68 -247 416 C-242.71 416 -238.42 416 -234 416 C-234 411.71 -234 407.42 -234 403 C-229.71 403 -225.42 403 -221 403 C-221 398.71 -221 394.42 -221 390 C-212.42 390 -203.84 390 -195 390 C-195 338.52 -195 287.04 -195 234 C-203.58 234 -212.16 234 -221 234 C-221 229.71 -221 225.42 -221 221 C-225.29 221 -229.58 221 -234 221 C-234 216.71 -234 212.42 -234 208 C-238.29 208 -242.58 208 -247 208 C-247 190.84 -247 173.68 -247 156 C-242.71 156 -238.42 156 -234 156 C-234 151.71 -234 147.42 -234 143 C-229.71 143 -225.42 143 -221 143 C-221 138.71 -221 134.42 -221 130 C-186.68 130 -152.36 130 -117 130 C-117 125.71 -117 121.42 -117 117 C-108.42 117 -99.84 117 -91 117 C-91 112.71 -91 108.42 -91 104 C-82.42 104 -73.84 104 -65 104 C-65 99.71 -65 95.42 -65 91 C-60.71 91 -56.42 91 -52 91 C-52 86.71 -52 82.42 -52 78 C-39.13 78 -26.26 78 -13 78 C-13 56.55 -13 35.1 -13 13 C-8.71 13 -4.42 13 0 13 C0 8.71 0 4.42 0 0 Z M-13 91 C-13 95.29 -13 99.58 -13 104 C-8.71 104 -4.42 104 0 104 C0 99.71 0 95.42 0 91 C-4.29 91 -8.58 91 -13 91 Z M78 91 C78 95.29 78 99.58 78 104 C82.29 104 86.58 104 91 104 C91 99.71 91 95.42 91 91 C86.71 91 82.42 91 78 91 Z M-39 104 C-39 108.29 -39 112.58 -39 117 C-43.29 117 -47.58 117 -52 117 C-52 121.29 -52 125.58 -52 130 C-64.87 130 -77.74 130 -91 130 C-91 134.29 -91 138.58 -91 143 C-95.29 143 -99.58 143 -104 143 C-104 147.29 -104 151.58 -104 156 C-112.58 156 -121.16 156 -130 156 C-130 173.16 -130 190.32 -130 208 C-134.29 208 -138.58 208 -143 208 C-143 212.29 -143 216.58 -143 221 C-147.29 221 -151.58 221 -156 221 C-156 225.29 -156 229.58 -156 234 C-160.29 234 -164.58 234 -169 234 C-169 276.9 -169 319.8 -169 364 C-164.71 364 -160.42 364 -156 364 C-156 359.71 -156 355.42 -156 351 C-151.71 351 -147.42 351 -143 351 C-143 342.42 -143 333.84 -143 325 C-138.71 325 -134.42 325 -130 325 C-130 320.71 -130 316.42 -130 312 C-125.71 312 -121.42 312 -117 312 C-117 303.42 -117 294.84 -117 286 C-112.71 286 -108.42 286 -104 286 C-104 277.42 -104 268.84 -104 260 C-99.71 260 -95.42 260 -91 260 C-91 251.42 -91 242.84 -91 234 C-86.71 234 -82.42 234 -78 234 C-78 229.71 -78 225.42 -78 221 C-73.71 221 -69.42 221 -65 221 C-65 208.13 -65 195.26 -65 182 C-60.71 182 -56.42 182 -52 182 C-52 177.71 -52 173.42 -52 169 C-47.71 169 -43.42 169 -39 169 C-39 160.42 -39 151.84 -39 143 C-34.71 143 -30.42 143 -26 143 C-26 138.71 -26 134.42 -26 130 C-21.71 130 -17.42 130 -13 130 C-13 121.42 -13 112.84 -13 104 C-21.58 104 -30.16 104 -39 104 Z M13 104 C13 112.58 13 121.16 13 130 C8.71 130 4.42 130 0 130 C0 138.58 0 147.16 0 156 C-4.29 156 -8.58 156 -13 156 C-13 164.58 -13 173.16 -13 182 C-17.29 182 -21.58 182 -26 182 C-26 186.29 -26 190.58 -26 195 C-30.29 195 -34.58 195 -39 195 C-39 207.87 -39 220.74 -39 234 C-43.29 234 -47.58 234 -52 234 C-52 238.29 -52 242.58 -52 247 C-56.29 247 -60.58 247 -65 247 C-65 255.58 -65 264.16 -65 273 C-69.29 273 -73.58 273 -78 273 C-78 277.29 -78 281.58 -78 286 C-82.29 286 -86.58 286 -91 286 C-91 294.58 -91 303.16 -91 312 C-95.29 312 -99.58 312 -104 312 C-104 320.58 -104 329.16 -104 338 C-108.29 338 -112.58 338 -117 338 C-117 346.58 -117 355.16 -117 364 C-121.29 364 -125.58 364 -130 364 C-130 368.29 -130 372.58 -130 377 C-134.29 377 -138.58 377 -143 377 C-143 389.87 -143 402.74 -143 416 C-138.71 416 -134.42 416 -130 416 C-130 420.29 -130 424.58 -130 429 C-18.46 429 93.08 429 208 429 C208 424.71 208 420.42 208 416 C212.29 416 216.58 416 221 416 C221 403.13 221 390.26 221 377 C216.71 377 212.42 377 208 377 C208 372.71 208 368.42 208 364 C203.71 364 199.42 364 195 364 C195 355.42 195 346.84 195 338 C190.71 338 186.42 338 182 338 C182 329.42 182 320.84 182 312 C177.71 312 173.42 312 169 312 C169 303.42 169 294.84 169 286 C164.71 286 160.42 286 156 286 C156 281.71 156 277.42 156 273 C151.71 273 147.42 273 143 273 C143 264.42 143 255.84 143 247 C138.71 247 134.42 247 130 247 C130 242.71 130 238.42 130 234 C125.71 234 121.42 234 117 234 C117 221.13 117 208.26 117 195 C112.71 195 108.42 195 104 195 C104 190.71 104 186.42 104 182 C99.71 182 95.42 182 91 182 C91 173.42 91 164.84 91 156 C86.71 156 82.42 156 78 156 C78 147.42 78 138.84 78 130 C73.71 130 69.42 130 65 130 C65 121.42 65 112.84 65 104 C47.84 104 30.68 104 13 104 Z M91 104 C91 112.58 91 121.16 91 130 C95.29 130 99.58 130 104 130 C104 134.29 104 138.58 104 143 C108.29 143 112.58 143 117 143 C117 151.58 117 160.16 117 169 C121.29 169 125.58 169 130 169 C130 173.29 130 177.58 130 182 C134.29 182 138.58 182 143 182 C143 194.87 143 207.74 143 221 C147.29 221 151.58 221 156 221 C156 225.29 156 229.58 156 234 C160.29 234 164.58 234 169 234 C169 242.58 169 251.16 169 260 C173.29 260 177.58 260 182 260 C182 268.58 182 277.16 182 286 C186.29 286 190.58 286 195 286 C195 294.58 195 303.16 195 312 C199.29 312 203.58 312 208 312 C208 316.29 208 320.58 208 325 C212.29 325 216.58 325 221 325 C221 333.58 221 342.16 221 351 C225.29 351 229.58 351 234 351 C234 355.29 234 359.58 234 364 C238.29 364 242.58 364 247 364 C247 321.1 247 278.2 247 234 C242.71 234 238.42 234 234 234 C234 229.71 234 225.42 234 221 C229.71 221 225.42 221 221 221 C221 216.71 221 212.42 221 208 C216.71 208 212.42 208 208 208 C208 190.84 208 173.68 208 156 C199.42 156 190.84 156 182 156 C182 151.71 182 147.42 182 143 C177.71 143 173.42 143 169 143 C169 138.71 169 134.42 169 130 C156.13 130 143.26 130 130 130 C130 125.71 130 121.42 130 117 C125.71 117 121.42 117 117 117 C117 112.71 117 108.42 117 104 C108.42 104 99.84 104 91 104 Z M-130 455 C-130 459.29 -130 463.58 -130 468 C-121.42 468 -112.84 468 -104 468 C-104 472.29 -104 476.58 -104 481 C-99.71 481 -95.42 481 -91 481 C-91 485.29 -91 489.58 -91 494 C-82.42 494 -73.84 494 -65 494 C-65 498.29 -65 502.58 -65 507 C-56.42 507 -47.84 507 -39 507 C-39 511.29 -39 515.58 -39 520 C-30.42 520 -21.84 520 -13 520 C-13 524.29 -13 528.58 -13 533 C-8.71 533 -4.42 533 0 533 C0 528.71 0 524.42 0 520 C25.74 520 51.48 520 78 520 C78 524.29 78 528.58 78 533 C82.29 533 86.58 533 91 533 C91 528.71 91 524.42 91 520 C99.58 520 108.16 520 117 520 C117 515.71 117 511.42 117 507 C125.58 507 134.16 507 143 507 C143 502.71 143 498.42 143 494 C151.58 494 160.16 494 169 494 C169 489.71 169 485.42 169 481 C173.29 481 177.58 481 182 481 C182 476.71 182 472.42 182 468 C190.58 468 199.16 468 208 468 C208 463.71 208 459.42 208 455 C96.46 455 -15.08 455 -130 455 Z " fill="#E534AA" transform="translate(286,13)"/>
</svg>
