<?xml version="1.0" encoding="UTF-8"?>
<svg version="1.1" xmlns="http://www.w3.org/2000/svg" width="715" height="533">
<path d="M0 0 C34.32 0 68.64 0 104 0 C104 4.29 104 8.58 104 13 C108.29 13 112.58 13 117 13 C117 17.29 117 21.58 117 26 C121.29 26 125.58 26 130 26 C130 21.71 130 17.42 130 13 C134.29 13 138.58 13 143 13 C143 8.71 143 4.42 143 0 C177.32 0 211.64 0 247 0 C247 4.29 247 8.58 247 13 C251.29 13 255.58 13 260 13 C260 17.29 260 21.58 260 26 C264.29 26 268.58 26 273 26 C273 30.29 273 34.58 273 39 C277.29 39 281.58 39 286 39 C286 43.29 286 47.58 286 52 C290.29 52 294.58 52 299 52 C299 56.29 299 60.58 299 65 C316.16 65 333.32 65 351 65 C351 56.42 351 47.84 351 39 C342.42 39 333.84 39 325 39 C325 34.71 325 30.42 325 26 C329.29 26 333.58 26 338 26 C338 21.71 338 17.42 338 13 C346.58 13 355.16 13 364 13 C364 17.29 364 21.58 364 26 C368.29 26 372.58 26 377 26 C377 30.29 377 34.58 377 39 C381.29 39 385.58 39 390 39 C390 56.16 390 73.32 390 91 C385.71 91 381.42 91 377 91 C377 95.29 377 99.58 377 104 C372.71 104 368.42 104 364 104 C364 108.29 364 112.58 364 117 C351.13 117 338.26 117 325 117 C325 121.29 325 125.58 325 130 C316.42 130 307.84 130 299 130 C299 125.71 299 121.42 299 117 C281.84 117 264.68 117 247 117 C247 112.71 247 108.42 247 104 C238.42 104 229.84 104 221 104 C221 99.71 221 95.42 221 91 C212.42 91 203.84 91 195 91 C195 86.71 195 82.42 195 78 C186.42 78 177.84 78 169 78 C169 73.71 169 69.42 169 65 C138.97 65 108.94 65 78 65 C78 69.29 78 73.58 78 78 C69.42 78 60.84 78 52 78 C52 82.29 52 86.58 52 91 C43.42 91 34.84 91 26 91 C26 95.29 26 99.58 26 104 C17.42 104 8.84 104 0 104 C0 108.29 0 112.58 0 117 C-17.16 117 -34.32 117 -52 117 C-52 121.29 -52 125.58 -52 130 C-60.58 130 -69.16 130 -78 130 C-78 125.71 -78 121.42 -78 117 C-90.87 117 -103.74 117 -117 117 C-117 112.71 -117 108.42 -117 104 C-121.29 104 -125.58 104 -130 104 C-130 99.71 -130 95.42 -130 91 C-134.29 91 -138.58 91 -143 91 C-143 73.84 -143 56.68 -143 39 C-138.71 39 -134.42 39 -130 39 C-130 34.71 -130 30.42 -130 26 C-125.71 26 -121.42 26 -117 26 C-117 21.71 -117 17.42 -117 13 C-108.42 13 -99.84 13 -91 13 C-91 17.29 -91 21.58 -91 26 C-86.71 26 -82.42 26 -78 26 C-78 30.29 -78 34.58 -78 39 C-86.58 39 -95.16 39 -104 39 C-104 47.58 -104 56.16 -104 65 C-86.84 65 -69.68 65 -52 65 C-52 60.71 -52 56.42 -52 52 C-47.71 52 -43.42 52 -39 52 C-39 47.71 -39 43.42 -39 39 C-34.71 39 -30.42 39 -26 39 C-26 34.71 -26 30.42 -26 26 C-21.71 26 -17.42 26 -13 26 C-13 21.71 -13 17.42 -13 13 C-8.71 13 -4.42 13 0 13 C0 8.71 0 4.42 0 0 Z " fill="#423426" transform="translate(234,208)"/>
</svg>
