<?xml version="1.0" encoding="UTF-8"?>
<svg version="1.1" xmlns="http://www.w3.org/2000/svg" width="390" height="390">
<path d="M0 0 C128.7 0 257.4 0 390 0 C390 128.7 390 257.4 390 390 C261.3 390 132.6 390 0 390 C0 261.3 0 132.6 0 0 Z " fill="#F7DF1E" transform="translate(0,0)"/>
<path d="M0 0 C21.45 0 42.9 0 65 0 C65 4.29 65 8.58 65 13 C69.29 13 73.58 13 78 13 C78 21.58 78 30.16 78 39 C69.42 39 60.84 39 52 39 C52 34.71 52 30.42 52 26 C39.13 26 26.26 26 13 26 C13 34.58 13 43.16 13 52 C17.29 52 21.58 52 26 52 C26 56.29 26 60.58 26 65 C38.87 65 51.74 65 65 65 C65 69.29 65 73.58 65 78 C69.29 78 73.58 78 78 78 C78 82.29 78 86.58 78 91 C82.29 91 86.58 91 91 91 C91 112.45 91 133.9 91 156 C86.71 156 82.42 156 78 156 C78 160.29 78 164.58 78 169 C52.26 169 26.52 169 0 169 C0 164.71 0 160.42 0 156 C-4.29 156 -8.58 156 -13 156 C-13 147.42 -13 138.84 -13 130 C-4.42 130 4.16 130 13 130 C13 134.29 13 138.58 13 143 C30.16 143 47.32 143 65 143 C65 130.13 65 117.26 65 104 C60.71 104 56.42 104 52 104 C52 99.71 52 95.42 52 91 C39.13 91 26.26 91 13 91 C13 86.71 13 82.42 13 78 C8.71 78 4.42 78 0 78 C0 73.71 0 69.42 0 65 C-4.29 65 -8.58 65 -13 65 C-13 47.84 -13 30.68 -13 13 C-8.71 13 -4.42 13 0 13 C0 8.71 0 4.42 0 0 Z " fill="#090801" transform="translate(260,182)"/>
<path d="M0 0 C12.87 0 25.74 0 39 0 C39 51.48 39 102.96 39 156 C34.71 156 30.42 156 26 156 C26 160.29 26 164.58 26 169 C0.26 169 -25.48 169 -52 169 C-52 164.71 -52 160.42 -52 156 C-56.29 156 -60.58 156 -65 156 C-65 147.42 -65 138.84 -65 130 C-52.13 130 -39.26 130 -26 130 C-26 134.29 -26 138.58 -26 143 C-17.42 143 -8.84 143 0 143 C0 95.81 0 48.62 0 0 Z " fill="#090801" transform="translate(169,182)"/>
</svg>
