<svg width="30" height="30" viewBox="0 0 30 30" fill="none" xmlns="http://www.w3.org/2000/svg">
<g clip-path="url(#clip0_24_545)">
<path d="M0 0C9.9 0 19.8 0 30 0C30 9.9 30 19.8 30 30C20.1 30 10.2 30 0 30C0 20.1 0 10.2 0 0Z" fill="#0A66C2"/>
<path d="M11.6667 10.3333C13.0967 10.3333 14.5267 10.3333 16 10.3333C16 10.7183 16 11.1033 16 11.5C16.715 11.5 17.43 11.5 18.1667 11.5C18.1667 11.115 18.1667 10.73 18.1667 10.3333C19.5967 10.3333 21.0267 10.3333 22.5 10.3333C22.5 10.7183 22.5 11.1033 22.5 11.5C23.215 11.5 23.93 11.5 24.6667 11.5C24.6667 12.215 24.6667 12.93 24.6667 13.6667C24.9967 13.6667 25.3267 13.6667 25.6667 13.6667C25.6667 17.5717 25.6667 21.4767 25.6667 25.5C24.2367 25.5 22.8067 25.5 21.3333 25.5C21.3333 22.31 21.3333 19.12 21.3333 15.8333C21.0033 15.8333 20.6733 15.8333 20.3333 15.8333C20.3333 15.4483 20.3333 15.0633 20.3333 14.6667C19.2883 14.6667 18.2433 14.6667 17.1667 14.6667C17.1667 15.0517 17.1667 15.4367 17.1667 15.8333C16.7817 15.8333 16.3967 15.8333 16 15.8333C16 19.0233 16 22.2133 16 25.5C14.57 25.5 13.14 25.5 11.6667 25.5C11.6667 20.495 11.6667 15.49 11.6667 10.3333Z" fill="#FEFEFE"/>
<path d="M4.16666 10.3333C5.59666 10.3333 7.02666 10.3333 8.49999 10.3333C8.49999 15.3383 8.49999 20.3433 8.49999 25.5C7.06999 25.5 5.63999 25.5 4.16666 25.5C4.16666 20.495 4.16666 15.49 4.16666 10.3333Z" fill="#FEFEFE"/>
<path d="M3 10.3333C3.385 10.3333 3.77 10.3333 4.16667 10.3333C4.16667 15.3383 4.16667 20.3433 4.16667 25.5C3.78167 25.5 3.39667 25.5 3 25.5C3 20.495 3 15.49 3 10.3333Z" fill="#130C0C"/>
<path d="M10.6667 10.3333C10.9967 10.3333 11.3267 10.3333 11.6667 10.3333C11.6667 15.3383 11.6667 20.3433 11.6667 25.5C11.3367 25.5 11.0067 25.5 10.6667 25.5C10.6667 20.495 10.6667 15.49 10.6667 10.3333Z" fill="#150E0E"/>
<path d="M8.5 10.3333C8.83 10.3333 9.16 10.3333 9.5 10.3333C9.5 15.3383 9.5 20.3433 9.5 25.5C9.17 25.5 8.84 25.5 8.5 25.5C8.5 20.495 8.5 15.49 8.5 10.3333Z" fill="#150E0E"/>
<path d="M25.6667 13.6667C26.0517 13.6667 26.4367 13.6667 26.8333 13.6667C26.8333 17.5717 26.8333 21.4767 26.8333 25.5C26.4483 25.5 26.0633 25.5 25.6667 25.5C25.6667 21.595 25.6667 17.69 25.6667 13.6667Z" fill="#130C0C"/>
<path d="M16 15.8333C16.385 15.8333 16.77 15.8333 17.1667 15.8333C17.1667 19.0233 17.1667 22.2133 17.1667 25.5C16.7817 25.5 16.3967 25.5 16 25.5C16 22.31 16 19.12 16 15.8333Z" fill="#120C0C"/>
<path d="M20.3333 15.8333C20.6633 15.8333 20.9933 15.8333 21.3333 15.8333C21.3333 19.0233 21.3333 22.2133 21.3333 25.5C21.0033 25.5 20.6733 25.5 20.3333 25.5C20.3333 22.31 20.3333 19.12 20.3333 15.8333Z" fill="#150D0D"/>
<path d="M4.16666 5C5.59666 5 7.02666 5 8.49999 5C8.49999 5.715 8.49999 6.43 8.49999 7.16667C7.06999 7.16667 5.63999 7.16667 4.16666 7.16667C4.16666 6.45167 4.16666 5.73667 4.16666 5Z" fill="#FEFEFE"/>
<path d="M3 5C3.385 5 3.77 5 4.16667 5C4.16667 5.715 4.16667 6.43 4.16667 7.16667C5.59667 7.16667 7.02667 7.16667 8.5 7.16667C8.5 7.55167 8.5 7.93667 8.5 8.33334C6.685 8.33334 4.87 8.33334 3 8.33334C3 7.23334 3 6.13334 3 5Z" fill="#170F0F"/>
<path d="M21.3333 25.5C22.7633 25.5 24.1933 25.5 25.6667 25.5C25.6667 25.885 25.6667 26.27 25.6667 26.6667C24.2367 26.6667 22.8067 26.6667 21.3333 26.6667C21.3333 26.2817 21.3333 25.8967 21.3333 25.5Z" fill="#181010"/>
<path d="M11.6667 25.5C13.0967 25.5 14.5267 25.5 16 25.5C16 25.885 16 26.27 16 26.6667C14.57 26.6667 13.14 26.6667 11.6667 26.6667C11.6667 26.2817 11.6667 25.8967 11.6667 25.5Z" fill="#181010"/>
<path d="M4.16666 25.5C5.59666 25.5 7.02666 25.5 8.49999 25.5C8.49999 25.885 8.49999 26.27 8.49999 26.6667C7.06999 26.6667 5.63999 26.6667 4.16666 26.6667C4.16666 26.2817 4.16666 25.8967 4.16666 25.5Z" fill="#181010"/>
<path d="M18.1667 9.33333C19.5967 9.33333 21.0267 9.33333 22.5 9.33333C22.5 9.66333 22.5 9.99333 22.5 10.3333C21.07 10.3333 19.64 10.3333 18.1667 10.3333C18.1667 10.0033 18.1667 9.67333 18.1667 9.33333Z" fill="#1B1212"/>
<path d="M11.6667 9.33333C13.0967 9.33333 14.5267 9.33333 16 9.33333C16 9.66333 16 9.99333 16 10.3333C14.57 10.3333 13.14 10.3333 11.6667 10.3333C11.6667 10.0033 11.6667 9.67333 11.6667 9.33333Z" fill="#1B1212"/>
<path d="M4.16666 9.33333C5.59666 9.33333 7.02666 9.33333 8.49999 9.33333C8.49999 9.66333 8.49999 9.99333 8.49999 10.3333C7.06999 10.3333 5.63999 10.3333 4.16666 10.3333C4.16666 10.0033 4.16666 9.67333 4.16666 9.33333Z" fill="#1B1212"/>
<path d="M4.16666 4C5.59666 4 7.02666 4 8.49999 4C8.49999 4.33 8.49999 4.66 8.49999 5C7.06999 5 5.63999 5 4.16666 5C4.16666 4.67 4.16666 4.34 4.16666 4Z" fill="#1B1212"/>
<path d="M17.1667 14.6667C18.2117 14.6667 19.2567 14.6667 20.3333 14.6667C20.3333 15.0517 20.3333 15.4367 20.3333 15.8333C19.2883 15.8333 18.2433 15.8333 17.1667 15.8333C17.1667 15.4483 17.1667 15.0633 17.1667 14.6667Z" fill="#100B0B"/>
<path d="M22.5 10.3333C23.215 10.3333 23.93 10.3333 24.6667 10.3333C24.6667 10.7183 24.6667 11.1033 24.6667 11.5C23.9517 11.5 23.2367 11.5 22.5 11.5C22.5 11.115 22.5 10.73 22.5 10.3333Z" fill="#181010"/>
<path d="M16 10.3333C16.715 10.3333 17.43 10.3333 18.1667 10.3333C18.1667 10.7183 18.1667 11.1033 18.1667 11.5C17.4517 11.5 16.7367 11.5 16 11.5C16 11.115 16 10.73 16 10.3333Z" fill="#100B0B"/>
<path d="M24.6667 11.5C24.9967 11.5 25.3267 11.5 25.6667 11.5C25.6667 12.215 25.6667 12.93 25.6667 13.6667C25.3367 13.6667 25.0067 13.6667 24.6667 13.6667C24.6667 12.9517 24.6667 12.2367 24.6667 11.5Z" fill="#1B1212"/>
<path d="M8.5 5C8.83 5 9.16 5 9.5 5C9.5 5.715 9.5 6.43 9.5 7.16667C9.17 7.16667 8.84 7.16667 8.5 7.16667C8.5 6.45167 8.5 5.73667 8.5 5Z" fill="#231717"/>
</g>
<defs>
<clipPath id="clip0_24_545">
<rect width="30" height="30" fill="white"/>
</clipPath>
</defs>
</svg>
