<?xml version="1.0" encoding="UTF-8"?>
<svg version="1.1" xmlns="http://www.w3.org/2000/svg" width="390" height="390">
<path d="M0 0 C34.32 0 68.64 0 104 0 C104 4.29 104 8.58 104 13 C116.87 13 129.74 13 143 13 C143 17.29 143 21.58 143 26 C147.29 26 151.58 26 156 26 C156 30.29 156 34.58 156 39 C164.58 39 173.16 39 182 39 C182 43.29 182 47.58 182 52 C186.29 52 190.58 52 195 52 C195 56.29 195 60.58 195 65 C199.29 65 203.58 65 208 65 C208 73.58 208 82.16 208 91 C212.29 91 216.58 91 221 91 C221 95.29 221 99.58 221 104 C225.29 104 229.58 104 234 104 C234 116.87 234 129.74 234 143 C238.29 143 242.58 143 247 143 C247 177.32 247 211.64 247 247 C242.71 247 238.42 247 234 247 C234 259.87 234 272.74 234 286 C229.71 286 225.42 286 221 286 C221 290.29 221 294.58 221 299 C216.71 299 212.42 299 208 299 C208 307.58 208 316.16 208 325 C203.71 325 199.42 325 195 325 C195 329.29 195 333.58 195 338 C190.71 338 186.42 338 182 338 C182 342.29 182 346.58 182 351 C173.42 351 164.84 351 156 351 C156 355.29 156 359.58 156 364 C151.71 364 147.42 364 143 364 C143 368.29 143 372.58 143 377 C130.13 377 117.26 377 104 377 C104 381.29 104 385.58 104 390 C69.68 390 35.36 390 0 390 C0 385.71 0 381.42 0 377 C-12.87 377 -25.74 377 -39 377 C-39 372.71 -39 368.42 -39 364 C-43.29 364 -47.58 364 -52 364 C-52 359.71 -52 355.42 -52 351 C-60.58 351 -69.16 351 -78 351 C-78 346.71 -78 342.42 -78 338 C-82.29 338 -86.58 338 -91 338 C-91 333.71 -91 329.42 -91 325 C-95.29 325 -99.58 325 -104 325 C-104 316.42 -104 307.84 -104 299 C-108.29 299 -112.58 299 -117 299 C-117 294.71 -117 290.42 -117 286 C-121.29 286 -125.58 286 -130 286 C-130 273.13 -130 260.26 -130 247 C-134.29 247 -138.58 247 -143 247 C-143 212.68 -143 178.36 -143 143 C-138.71 143 -134.42 143 -130 143 C-130 130.13 -130 117.26 -130 104 C-125.71 104 -121.42 104 -117 104 C-117 99.71 -117 95.42 -117 91 C-112.71 91 -108.42 91 -104 91 C-104 82.42 -104 73.84 -104 65 C-99.71 65 -95.42 65 -91 65 C-91 60.71 -91 56.42 -91 52 C-86.71 52 -82.42 52 -78 52 C-78 47.71 -78 43.42 -78 39 C-69.42 39 -60.84 39 -52 39 C-52 34.71 -52 30.42 -52 26 C-47.71 26 -43.42 26 -39 26 C-39 21.71 -39 17.42 -39 13 C-26.13 13 -13.26 13 0 13 C0 8.71 0 4.42 0 0 Z " fill="#F6FBF6" transform="translate(143,0)"/>
<path d="M0 0 C8.58 0 17.16 0 26 0 C26 4.29 26 8.58 26 13 C47.45 13 68.9 13 91 13 C91 17.29 91 21.58 91 26 C103.87 26 116.74 26 130 26 C130 30.29 130 34.58 130 39 C134.29 39 138.58 39 143 39 C143 43.29 143 47.58 143 52 C147.29 52 151.58 52 156 52 C156 56.29 156 60.58 156 65 C160.29 65 164.58 65 169 65 C169 69.29 169 73.58 169 78 C173.29 78 177.58 78 182 78 C182 82.29 182 86.58 182 91 C186.29 91 190.58 91 195 91 C195 99.58 195 108.16 195 117 C190.71 117 186.42 117 182 117 C182 121.29 182 125.58 182 130 C177.71 130 173.42 130 169 130 C169 134.29 169 138.58 169 143 C164.71 143 160.42 143 156 143 C156 147.29 156 151.58 156 156 C151.71 156 147.42 156 143 156 C143 160.29 143 164.58 143 169 C138.71 169 134.42 169 130 169 C130 173.29 130 177.58 130 182 C117.13 182 104.26 182 91 182 C91 186.29 91 190.58 91 195 C69.55 195 48.1 195 26 195 C26 199.29 26 203.58 26 208 C17.42 208 8.84 208 0 208 C0 199.42 0 190.84 0 182 C-25.74 182 -51.48 182 -78 182 C-78 164.84 -78 147.68 -78 130 C-82.29 130 -86.58 130 -91 130 C-91 112.84 -91 95.68 -91 78 C-86.71 78 -82.42 78 -78 78 C-78 60.84 -78 43.68 -78 26 C-52.26 26 -26.52 26 0 26 C0 17.42 0 8.84 0 0 Z " fill="#008000" transform="translate(117,91)"/>
<path d="M0 0 C25.74 0 51.48 0 78 0 C78 4.29 78 8.58 78 13 C90.87 13 103.74 13 117 13 C117 17.29 117 21.58 117 26 C121.29 26 125.58 26 130 26 C130 30.29 130 34.58 130 39 C138.58 39 147.16 39 156 39 C156 43.29 156 47.58 156 52 C160.29 52 164.58 52 169 52 C169 60.58 169 69.16 169 78 C173.29 78 177.58 78 182 78 C182 82.29 182 86.58 182 91 C186.29 91 190.58 91 195 91 C195 108.16 195 125.32 195 143 C199.29 143 203.58 143 208 143 C208 147.29 208 151.58 208 156 C195.13 156 182.26 156 169 156 C169 151.71 169 147.42 169 143 C164.71 143 160.42 143 156 143 C156 138.71 156 134.42 156 130 C151.71 130 147.42 130 143 130 C143 125.71 143 121.42 143 117 C138.71 117 134.42 117 130 117 C130 112.71 130 108.42 130 104 C125.71 104 121.42 104 117 104 C117 99.71 117 95.42 117 91 C112.71 91 108.42 91 104 91 C104 86.71 104 82.42 104 78 C91.13 78 78.26 78 65 78 C65 73.71 65 69.42 65 65 C43.55 65 22.1 65 0 65 C0 60.71 0 56.42 0 52 C-17.16 52 -34.32 52 -52 52 C-52 60.58 -52 69.16 -52 78 C-64.87 78 -77.74 78 -91 78 C-91 69.42 -91 60.84 -91 52 C-86.71 52 -82.42 52 -78 52 C-78 47.71 -78 43.42 -78 39 C-69.42 39 -60.84 39 -52 39 C-52 34.71 -52 30.42 -52 26 C-47.71 26 -43.42 26 -39 26 C-39 21.71 -39 17.42 -39 13 C-26.13 13 -13.26 13 0 13 C0 8.71 0 4.42 0 0 Z " fill="#008000" transform="translate(156,26)"/>
<path d="M0 0 C12.87 0 25.74 0 39 0 C39 4.29 39 8.58 39 13 C34.71 13 30.42 13 26 13 C26 30.16 26 47.32 26 65 C17.42 65 8.84 65 0 65 C0 77.87 0 90.74 0 104 C-4.29 104 -8.58 104 -13 104 C-13 108.29 -13 112.58 -13 117 C-21.58 117 -30.16 117 -39 117 C-39 121.29 -39 125.58 -39 130 C-43.29 130 -47.58 130 -52 130 C-52 134.29 -52 138.58 -52 143 C-64.87 143 -77.74 143 -91 143 C-91 147.29 -91 151.58 -91 156 C-116.74 156 -142.48 156 -169 156 C-169 151.71 -169 147.42 -169 143 C-181.87 143 -194.74 143 -208 143 C-208 138.71 -208 134.42 -208 130 C-212.29 130 -216.58 130 -221 130 C-221 125.71 -221 121.42 -221 117 C-229.58 117 -238.16 117 -247 117 C-247 112.71 -247 108.42 -247 104 C-251.29 104 -255.58 104 -260 104 C-260 95.42 -260 86.84 -260 78 C-247.13 78 -234.26 78 -221 78 C-221 86.58 -221 95.16 -221 104 C-203.84 104 -186.68 104 -169 104 C-169 99.71 -169 95.42 -169 91 C-147.55 91 -126.1 91 -104 91 C-104 86.71 -104 82.42 -104 78 C-91.13 78 -78.26 78 -65 78 C-65 73.71 -65 69.42 -65 65 C-60.71 65 -56.42 65 -52 65 C-52 60.71 -52 56.42 -52 52 C-47.71 52 -43.42 52 -39 52 C-39 47.71 -39 43.42 -39 39 C-34.71 39 -30.42 39 -26 39 C-26 34.71 -26 30.42 -26 26 C-21.71 26 -17.42 26 -13 26 C-13 21.71 -13 17.42 -13 13 C-8.71 13 -4.42 13 0 13 C0 8.71 0 4.42 0 0 Z " fill="#008000" transform="translate(325,208)"/>
<path d="M0 0 C25.74 0 51.48 0 78 0 C78 17.16 78 34.32 78 52 C82.29 52 86.58 52 91 52 C91 69.16 91 86.32 91 104 C86.71 104 82.42 104 78 104 C78 121.16 78 138.32 78 156 C52.26 156 26.52 156 0 156 C0 138.84 0 121.68 0 104 C-4.29 104 -8.58 104 -13 104 C-13 86.84 -13 69.68 -13 52 C-8.71 52 -4.42 52 0 52 C0 34.84 0 17.68 0 0 Z " fill="#008000" transform="translate(39,117)"/>
<path d="M0 0 C4.29 0 8.58 0 13 0 C13 12.87 13 25.74 13 39 C17.29 39 21.58 39 26 39 C26 64.74 26 90.48 26 117 C21.71 117 17.42 117 13 117 C13 129.87 13 142.74 13 156 C8.71 156 4.42 156 0 156 C0 138.84 0 121.68 0 104 C4.29 104 8.58 104 13 104 C13 86.84 13 69.68 13 52 C8.71 52 4.42 52 0 52 C0 34.84 0 17.68 0 0 Z " fill="#F6FBF6" transform="translate(117,117)"/>
<path d="M0 0 C34.32 0 68.64 0 104 0 C104 4.29 104 8.58 104 13 C69.68 13 35.36 13 0 13 C0 8.71 0 4.42 0 0 Z " fill="#008000" transform="translate(143,377)"/>
<path d="M0 0 C4.29 0 8.58 0 13 0 C13 34.32 13 68.64 13 104 C8.71 104 4.42 104 0 104 C0 69.68 0 35.36 0 0 Z " fill="#008000" transform="translate(377,143)"/>
<path d="M0 0 C4.29 0 8.58 0 13 0 C13 34.32 13 68.64 13 104 C8.71 104 4.42 104 0 104 C0 69.68 0 35.36 0 0 Z " fill="#008000" transform="translate(0,143)"/>
<path d="M0 0 C34.32 0 68.64 0 104 0 C104 4.29 104 8.58 104 13 C69.68 13 35.36 13 0 13 C0 8.71 0 4.42 0 0 Z " fill="#008000" transform="translate(143,0)"/>
<path d="M0 0 C12.87 0 25.74 0 39 0 C39 4.29 39 8.58 39 13 C26.13 13 13.26 13 0 13 C0 8.71 0 4.42 0 0 Z " fill="#008000" transform="translate(247,364)"/>
<path d="M0 0 C12.87 0 25.74 0 39 0 C39 4.29 39 8.58 39 13 C26.13 13 13.26 13 0 13 C0 8.71 0 4.42 0 0 Z " fill="#008000" transform="translate(104,364)"/>
<path d="M0 0 C4.29 0 8.58 0 13 0 C13 12.87 13 25.74 13 39 C8.71 39 4.42 39 0 39 C0 26.13 0 13.26 0 0 Z " fill="#008000" transform="translate(364,247)"/>
<path d="M0 0 C4.29 0 8.58 0 13 0 C13 12.87 13 25.74 13 39 C8.71 39 4.42 39 0 39 C0 26.13 0 13.26 0 0 Z " fill="#008000" transform="translate(13,247)"/>
<path d="M0 0 C4.29 0 8.58 0 13 0 C13 12.87 13 25.74 13 39 C8.71 39 4.42 39 0 39 C0 26.13 0 13.26 0 0 Z " fill="#008000" transform="translate(364,104)"/>
<path d="M0 0 C4.29 0 8.58 0 13 0 C13 12.87 13 25.74 13 39 C8.71 39 4.42 39 0 39 C0 26.13 0 13.26 0 0 Z " fill="#008000" transform="translate(13,104)"/>
<path d="M0 0 C12.87 0 25.74 0 39 0 C39 4.29 39 8.58 39 13 C26.13 13 13.26 13 0 13 C0 8.71 0 4.42 0 0 Z " fill="#008000" transform="translate(247,13)"/>
<path d="M0 0 C12.87 0 25.74 0 39 0 C39 4.29 39 8.58 39 13 C26.13 13 13.26 13 0 13 C0 8.71 0 4.42 0 0 Z " fill="#008000" transform="translate(104,13)"/>
<path d="M0 0 C8.58 0 17.16 0 26 0 C26 4.29 26 8.58 26 13 C17.42 13 8.84 13 0 13 C0 8.71 0 4.42 0 0 Z " fill="#008000" transform="translate(299,338)"/>
<path d="M0 0 C8.58 0 17.16 0 26 0 C26 4.29 26 8.58 26 13 C17.42 13 8.84 13 0 13 C0 8.71 0 4.42 0 0 Z " fill="#008000" transform="translate(65,338)"/>
<path d="M0 0 C4.29 0 8.58 0 13 0 C13 8.58 13 17.16 13 26 C8.71 26 4.42 26 0 26 C0 17.42 0 8.84 0 0 Z " fill="#008000" transform="translate(338,299)"/>
<path d="M0 0 C4.29 0 8.58 0 13 0 C13 8.58 13 17.16 13 26 C8.71 26 4.42 26 0 26 C0 17.42 0 8.84 0 0 Z " fill="#008000" transform="translate(39,299)"/>
<path d="M0 0 C4.29 0 8.58 0 13 0 C13 8.58 13 17.16 13 26 C8.71 26 4.42 26 0 26 C0 17.42 0 8.84 0 0 Z " fill="#008000" transform="translate(338,65)"/>
<path d="M0 0 C4.29 0 8.58 0 13 0 C13 8.58 13 17.16 13 26 C8.71 26 4.42 26 0 26 C0 17.42 0 8.84 0 0 Z " fill="#008000" transform="translate(39,65)"/>
<path d="M0 0 C8.58 0 17.16 0 26 0 C26 4.29 26 8.58 26 13 C17.42 13 8.84 13 0 13 C0 8.71 0 4.42 0 0 Z " fill="#008000" transform="translate(299,39)"/>
<path d="M0 0 C8.58 0 17.16 0 26 0 C26 4.29 26 8.58 26 13 C17.42 13 8.84 13 0 13 C0 8.71 0 4.42 0 0 Z " fill="#008000" transform="translate(65,39)"/>
<path d="M0 0 C4.29 0 8.58 0 13 0 C13 4.29 13 8.58 13 13 C8.71 13 4.42 13 0 13 C0 8.71 0 4.42 0 0 Z " fill="#008000" transform="translate(286,351)"/>
<path d="M0 0 C4.29 0 8.58 0 13 0 C13 4.29 13 8.58 13 13 C8.71 13 4.42 13 0 13 C0 8.71 0 4.42 0 0 Z " fill="#008000" transform="translate(91,351)"/>
<path d="M0 0 C4.29 0 8.58 0 13 0 C13 4.29 13 8.58 13 13 C8.71 13 4.42 13 0 13 C0 8.71 0 4.42 0 0 Z " fill="#008000" transform="translate(325,325)"/>
<path d="M0 0 C4.29 0 8.58 0 13 0 C13 4.29 13 8.58 13 13 C8.71 13 4.42 13 0 13 C0 8.71 0 4.42 0 0 Z " fill="#008000" transform="translate(52,325)"/>
<path d="M0 0 C4.29 0 8.58 0 13 0 C13 4.29 13 8.58 13 13 C8.71 13 4.42 13 0 13 C0 8.71 0 4.42 0 0 Z " fill="#008000" transform="translate(351,286)"/>
<path d="M0 0 C4.29 0 8.58 0 13 0 C13 4.29 13 8.58 13 13 C8.71 13 4.42 13 0 13 C0 8.71 0 4.42 0 0 Z " fill="#008000" transform="translate(26,286)"/>
<path d="M0 0 C4.29 0 8.58 0 13 0 C13 4.29 13 8.58 13 13 C8.71 13 4.42 13 0 13 C0 8.71 0 4.42 0 0 Z " fill="#008000" transform="translate(351,91)"/>
<path d="M0 0 C4.29 0 8.58 0 13 0 C13 4.29 13 8.58 13 13 C8.71 13 4.42 13 0 13 C0 8.71 0 4.42 0 0 Z " fill="#008000" transform="translate(26,91)"/>
<path d="M0 0 C4.29 0 8.58 0 13 0 C13 4.29 13 8.58 13 13 C8.71 13 4.42 13 0 13 C0 8.71 0 4.42 0 0 Z " fill="#008000" transform="translate(325,52)"/>
<path d="M0 0 C4.29 0 8.58 0 13 0 C13 4.29 13 8.58 13 13 C8.71 13 4.42 13 0 13 C0 8.71 0 4.42 0 0 Z " fill="#008000" transform="translate(52,52)"/>
<path d="M0 0 C4.29 0 8.58 0 13 0 C13 4.29 13 8.58 13 13 C8.71 13 4.42 13 0 13 C0 8.71 0 4.42 0 0 Z " fill="#008000" transform="translate(286,26)"/>
<path d="M0 0 C4.29 0 8.58 0 13 0 C13 4.29 13 8.58 13 13 C8.71 13 4.42 13 0 13 C0 8.71 0 4.42 0 0 Z " fill="#008000" transform="translate(91,26)"/>
</svg>
