<?xml version="1.0" encoding="UTF-8"?>
<svg version="1.1" xmlns="http://www.w3.org/2000/svg" width="672" height="672">
<path d="M0 0 C36.96 0 73.92 0 112 0 C112 4.62 112 9.24 112 14 C121.24 14 130.48 14 140 14 C140 18.62 140 23.24 140 28 C149.24 28 158.48 28 168 28 C168 32.62 168 37.24 168 42 C172.62 42 177.24 42 182 42 C182 46.62 182 51.24 182 56 C186.62 56 191.24 56 196 56 C196 60.62 196 65.24 196 70 C200.62 70 205.24 70 210 70 C210 74.62 210 79.24 210 84 C214.62 84 219.24 84 224 84 C224 93.24 224 102.48 224 112 C228.62 112 233.24 112 238 112 C238 148.96 238 185.92 238 224 C233.38 224 228.76 224 224 224 C224 237.86 224 251.72 224 266 C219.38 266 214.76 266 210 266 C210 275.24 210 284.48 210 294 C205.38 294 200.76 294 196 294 C196 303.24 196 312.48 196 322 C191.38 322 186.76 322 182 322 C182 326.62 182 331.24 182 336 C177.38 336 172.76 336 168 336 C168 340.62 168 345.24 168 350 C163.38 350 158.76 350 154 350 C154 359.24 154 368.48 154 378 C149.38 378 144.76 378 140 378 C140 387.24 140 396.48 140 406 C135.38 406 130.76 406 126 406 C126 410.62 126 415.24 126 420 C121.38 420 116.76 420 112 420 C112 424.62 112 429.24 112 434 C107.38 434 102.76 434 98 434 C98 443.24 98 452.48 98 462 C93.38 462 88.76 462 84 462 C84 466.62 84 471.24 84 476 C79.38 476 74.76 476 70 476 C70 480.62 70 485.24 70 490 C60.76 490 51.52 490 42 490 C42 485.38 42 480.76 42 476 C37.38 476 32.76 476 28 476 C28 471.38 28 466.76 28 462 C23.38 462 18.76 462 14 462 C14 452.76 14 443.52 14 434 C9.38 434 4.76 434 0 434 C0 429.38 0 424.76 0 420 C-4.62 420 -9.24 420 -14 420 C-14 415.38 -14 410.76 -14 406 C-18.62 406 -23.24 406 -28 406 C-28 396.76 -28 387.52 -28 378 C-32.62 378 -37.24 378 -42 378 C-42 368.76 -42 359.52 -42 350 C-46.62 350 -51.24 350 -56 350 C-56 345.38 -56 340.76 -56 336 C-60.62 336 -65.24 336 -70 336 C-70 331.38 -70 326.76 -70 322 C-74.62 322 -79.24 322 -84 322 C-84 312.76 -84 303.52 -84 294 C-88.62 294 -93.24 294 -98 294 C-98 284.76 -98 275.52 -98 266 C-102.62 266 -107.24 266 -112 266 C-112 252.14 -112 238.28 -112 224 C-116.62 224 -121.24 224 -126 224 C-126 187.04 -126 150.08 -126 112 C-121.38 112 -116.76 112 -112 112 C-112 102.76 -112 93.52 -112 84 C-107.38 84 -102.76 84 -98 84 C-98 79.38 -98 74.76 -98 70 C-93.38 70 -88.76 70 -84 70 C-84 65.38 -84 60.76 -84 56 C-79.38 56 -74.76 56 -70 56 C-70 51.38 -70 46.76 -70 42 C-65.38 42 -60.76 42 -56 42 C-56 37.38 -56 32.76 -56 28 C-46.76 28 -37.52 28 -28 28 C-28 23.38 -28 18.76 -28 14 C-18.76 14 -9.52 14 0 14 C0 9.38 0 4.76 0 0 Z M28 98 C28 102.62 28 107.24 28 112 C18.76 112 9.52 112 0 112 C0 116.62 0 121.24 0 126 C-4.62 126 -9.24 126 -14 126 C-14 130.62 -14 135.24 -14 140 C-18.62 140 -23.24 140 -28 140 C-28 163.1 -28 186.2 -28 210 C-23.38 210 -18.76 210 -14 210 C-14 214.62 -14 219.24 -14 224 C-9.38 224 -4.76 224 0 224 C0 228.62 0 233.24 0 238 C4.62 238 9.24 238 14 238 C14 242.62 14 247.24 14 252 C18.62 252 23.24 252 28 252 C28 256.62 28 261.24 28 266 C46.48 266 64.96 266 84 266 C84 261.38 84 256.76 84 252 C88.62 252 93.24 252 98 252 C98 247.38 98 242.76 98 238 C102.62 238 107.24 238 112 238 C112 233.38 112 228.76 112 224 C116.62 224 121.24 224 126 224 C126 219.38 126 214.76 126 210 C130.62 210 135.24 210 140 210 C140 186.9 140 163.8 140 140 C135.38 140 130.76 140 126 140 C126 135.38 126 130.76 126 126 C121.38 126 116.76 126 112 126 C112 121.38 112 116.76 112 112 C102.76 112 93.52 112 84 112 C84 107.38 84 102.76 84 98 C65.52 98 47.04 98 28 98 Z " fill="#B42A2A" transform="translate(280,84)"/>
<path d="M0 0 C36.96 0 73.92 0 112 0 C112 4.62 112 9.24 112 14 C121.24 14 130.48 14 140 14 C140 18.62 140 23.24 140 28 C149.24 28 158.48 28 168 28 C168 32.62 168 37.24 168 42 C172.62 42 177.24 42 182 42 C182 46.62 182 51.24 182 56 C186.62 56 191.24 56 196 56 C196 60.62 196 65.24 196 70 C200.62 70 205.24 70 210 70 C210 74.62 210 79.24 210 84 C214.62 84 219.24 84 224 84 C224 93.24 224 102.48 224 112 C228.62 112 233.24 112 238 112 C238 148.96 238 185.92 238 224 C233.38 224 228.76 224 224 224 C224 237.86 224 251.72 224 266 C219.38 266 214.76 266 210 266 C210 275.24 210 284.48 210 294 C205.38 294 200.76 294 196 294 C196 280.14 196 266.28 196 252 C200.62 252 205.24 252 210 252 C210 238.14 210 224.28 210 210 C214.62 210 219.24 210 224 210 C224 182.28 224 154.56 224 126 C219.38 126 214.76 126 210 126 C210 116.76 210 107.52 210 98 C205.38 98 200.76 98 196 98 C196 93.38 196 88.76 196 84 C191.38 84 186.76 84 182 84 C182 79.38 182 74.76 182 70 C177.38 70 172.76 70 168 70 C168 65.38 168 60.76 168 56 C163.38 56 158.76 56 154 56 C154 51.38 154 46.76 154 42 C144.76 42 135.52 42 126 42 C126 37.38 126 32.76 126 28 C116.76 28 107.52 28 98 28 C98 23.38 98 18.76 98 14 C70.28 14 42.56 14 14 14 C14 18.62 14 23.24 14 28 C4.76 28 -4.48 28 -14 28 C-14 32.62 -14 37.24 -14 42 C-23.24 42 -32.48 42 -42 42 C-42 46.62 -42 51.24 -42 56 C-46.62 56 -51.24 56 -56 56 C-56 60.62 -56 65.24 -56 70 C-60.62 70 -65.24 70 -70 70 C-70 74.62 -70 79.24 -70 84 C-74.62 84 -79.24 84 -84 84 C-84 88.62 -84 93.24 -84 98 C-88.62 98 -93.24 98 -98 98 C-98 107.24 -98 116.48 -98 126 C-102.62 126 -107.24 126 -112 126 C-112 153.72 -112 181.44 -112 210 C-107.38 210 -102.76 210 -98 210 C-98 223.86 -98 237.72 -98 252 C-93.38 252 -88.76 252 -84 252 C-84 265.86 -84 279.72 -84 294 C-88.62 294 -93.24 294 -98 294 C-98 284.76 -98 275.52 -98 266 C-102.62 266 -107.24 266 -112 266 C-112 252.14 -112 238.28 -112 224 C-116.62 224 -121.24 224 -126 224 C-126 187.04 -126 150.08 -126 112 C-121.38 112 -116.76 112 -112 112 C-112 102.76 -112 93.52 -112 84 C-107.38 84 -102.76 84 -98 84 C-98 79.38 -98 74.76 -98 70 C-93.38 70 -88.76 70 -84 70 C-84 65.38 -84 60.76 -84 56 C-79.38 56 -74.76 56 -70 56 C-70 51.38 -70 46.76 -70 42 C-65.38 42 -60.76 42 -56 42 C-56 37.38 -56 32.76 -56 28 C-46.76 28 -37.52 28 -28 28 C-28 23.38 -28 18.76 -28 14 C-18.76 14 -9.52 14 0 14 C0 9.38 0 4.76 0 0 Z " fill="#000000" transform="translate(280,84)"/>
<path d="M0 0 C27.72 0 55.44 0 84 0 C84 4.62 84 9.24 84 14 C93.24 14 102.48 14 112 14 C112 18.62 112 23.24 112 28 C116.62 28 121.24 28 126 28 C126 32.62 126 37.24 126 42 C130.62 42 135.24 42 140 42 C140 74.34 140 106.68 140 140 C135.38 140 130.76 140 126 140 C126 144.62 126 149.24 126 154 C121.38 154 116.76 154 112 154 C112 158.62 112 163.24 112 168 C107.38 168 102.76 168 98 168 C98 172.62 98 177.24 98 182 C88.76 182 79.52 182 70 182 C70 177.38 70 172.76 70 168 C74.62 168 79.24 168 84 168 C84 163.38 84 158.76 84 154 C88.62 154 93.24 154 98 154 C98 149.38 98 144.76 98 140 C102.62 140 107.24 140 112 140 C112 135.38 112 130.76 112 126 C116.62 126 121.24 126 126 126 C126 102.9 126 79.8 126 56 C121.38 56 116.76 56 112 56 C112 51.38 112 46.76 112 42 C107.38 42 102.76 42 98 42 C98 37.38 98 32.76 98 28 C88.76 28 79.52 28 70 28 C70 23.38 70 18.76 70 14 C51.52 14 33.04 14 14 14 C14 18.62 14 23.24 14 28 C4.76 28 -4.48 28 -14 28 C-14 32.62 -14 37.24 -14 42 C-18.62 42 -23.24 42 -28 42 C-28 46.62 -28 51.24 -28 56 C-32.62 56 -37.24 56 -42 56 C-42 79.1 -42 102.2 -42 126 C-37.38 126 -32.76 126 -28 126 C-28 130.62 -28 135.24 -28 140 C-23.38 140 -18.76 140 -14 140 C-14 144.62 -14 149.24 -14 154 C-9.38 154 -4.76 154 0 154 C0 158.62 0 163.24 0 168 C4.62 168 9.24 168 14 168 C14 172.62 14 177.24 14 182 C4.76 182 -4.48 182 -14 182 C-14 177.38 -14 172.76 -14 168 C-18.62 168 -23.24 168 -28 168 C-28 163.38 -28 158.76 -28 154 C-32.62 154 -37.24 154 -42 154 C-42 149.38 -42 144.76 -42 140 C-46.62 140 -51.24 140 -56 140 C-56 107.66 -56 75.32 -56 42 C-51.38 42 -46.76 42 -42 42 C-42 37.38 -42 32.76 -42 28 C-37.38 28 -32.76 28 -28 28 C-28 23.38 -28 18.76 -28 14 C-18.76 14 -9.52 14 0 14 C0 9.38 0 4.76 0 0 Z " fill="#000000" transform="translate(294,168)"/>
<path d="M0 0 C4.62 0 9.24 0 14 0 C14 9.24 14 18.48 14 28 C9.38 28 4.76 28 0 28 C0 37.24 0 46.48 0 56 C-4.62 56 -9.24 56 -14 56 C-14 60.62 -14 65.24 -14 70 C-18.62 70 -23.24 70 -28 70 C-28 74.62 -28 79.24 -28 84 C-32.62 84 -37.24 84 -42 84 C-42 93.24 -42 102.48 -42 112 C-46.62 112 -51.24 112 -56 112 C-56 116.62 -56 121.24 -56 126 C-60.62 126 -65.24 126 -70 126 C-70 116.76 -70 107.52 -70 98 C-65.38 98 -60.76 98 -56 98 C-56 88.76 -56 79.52 -56 70 C-51.38 70 -46.76 70 -42 70 C-42 65.38 -42 60.76 -42 56 C-37.38 56 -32.76 56 -28 56 C-28 51.38 -28 46.76 -28 42 C-23.38 42 -18.76 42 -14 42 C-14 32.76 -14 23.52 -14 14 C-9.38 14 -4.76 14 0 14 C0 9.38 0 4.76 0 0 Z " fill="#000000" transform="translate(420,434)"/>
<path d="M0 0 C4.62 0 9.24 0 14 0 C14 4.62 14 9.24 14 14 C18.62 14 23.24 14 28 14 C28 23.24 28 32.48 28 42 C32.62 42 37.24 42 42 42 C42 46.62 42 51.24 42 56 C46.62 56 51.24 56 56 56 C56 60.62 56 65.24 56 70 C60.62 70 65.24 70 70 70 C70 79.24 70 88.48 70 98 C74.62 98 79.24 98 84 98 C84 107.24 84 116.48 84 126 C79.38 126 74.76 126 70 126 C70 121.38 70 116.76 70 112 C65.38 112 60.76 112 56 112 C56 102.76 56 93.52 56 84 C51.38 84 46.76 84 42 84 C42 79.38 42 74.76 42 70 C37.38 70 32.76 70 28 70 C28 65.38 28 60.76 28 56 C23.38 56 18.76 56 14 56 C14 46.76 14 37.52 14 28 C9.38 28 4.76 28 0 28 C0 18.76 0 9.52 0 0 Z " fill="#000000" transform="translate(238,434)"/>
<path d="M0 0 C4.62 0 9.24 0 14 0 C14 9.24 14 18.48 14 28 C9.38 28 4.76 28 0 28 C0 32.62 0 37.24 0 42 C-4.62 42 -9.24 42 -14 42 C-14 46.62 -14 51.24 -14 56 C-18.62 56 -23.24 56 -28 56 C-28 46.76 -28 37.52 -28 28 C-23.38 28 -18.76 28 -14 28 C-14 23.38 -14 18.76 -14 14 C-9.38 14 -4.76 14 0 14 C0 9.38 0 4.76 0 0 Z " fill="#000000" transform="translate(462,378)"/>
<path d="M0 0 C4.62 0 9.24 0 14 0 C14 4.62 14 9.24 14 14 C18.62 14 23.24 14 28 14 C28 18.62 28 23.24 28 28 C32.62 28 37.24 28 42 28 C42 37.24 42 46.48 42 56 C37.38 56 32.76 56 28 56 C28 51.38 28 46.76 28 42 C23.38 42 18.76 42 14 42 C14 37.38 14 32.76 14 28 C9.38 28 4.76 28 0 28 C0 18.76 0 9.52 0 0 Z " fill="#000000" transform="translate(196,378)"/>
<path d="M0 0 C18.48 0 36.96 0 56 0 C56 4.62 56 9.24 56 14 C37.52 14 19.04 14 0 14 C0 9.38 0 4.76 0 0 Z " fill="#000000" transform="translate(308,350)"/>
<path d="M0 0 C9.24 0 18.48 0 28 0 C28 4.62 28 9.24 28 14 C18.76 14 9.52 14 0 14 C0 9.38 0 4.76 0 0 Z " fill="#000000" transform="translate(322,560)"/>
</svg>
