<?xml version="1.0" encoding="UTF-8"?>
<!DOCTYPE svg PUBLIC "-//W3C//DTD SVG 1.1//EN" "http://www.w3.org/Graphics/SVG/1.1/DTD/svg11.dtd">
<svg xmlns="http://www.w3.org/2000/svg" version="1.1" width="1008px" height="672px" style="shape-rendering:geometricPrecision; text-rendering:geometricPrecision; image-rendering:optimizeQuality; fill-rule:evenodd; clip-rule:evenodd" xmlns:xlink="http://www.w3.org/1999/xlink">
<g><path style="opacity:1" fill="#0065dd" d="M 195.5,-0.5 C 246.833,-0.5 298.167,-0.5 349.5,-0.5C 349.5,4.16667 349.5,8.83333 349.5,13.5C 358.833,13.5 368.167,13.5 377.5,13.5C 377.5,18.1667 377.5,22.8333 377.5,27.5C 382.167,27.5 386.833,27.5 391.5,27.5C 391.5,32.1667 391.5,36.8333 391.5,41.5C 400.833,41.5 410.167,41.5 419.5,41.5C 419.5,46.1667 419.5,50.8333 419.5,55.5C 424.167,55.5 428.833,55.5 433.5,55.5C 433.5,60.1667 433.5,64.8333 433.5,69.5C 438.167,69.5 442.833,69.5 447.5,69.5C 447.5,74.1667 447.5,78.8333 447.5,83.5C 452.167,83.5 456.833,83.5 461.5,83.5C 461.5,88.1667 461.5,92.8333 461.5,97.5C 470.833,97.5 480.167,97.5 489.5,97.5C 489.5,102.167 489.5,106.833 489.5,111.5C 498.833,111.5 508.167,111.5 517.5,111.5C 517.5,106.833 517.5,102.167 517.5,97.5C 526.833,97.5 536.167,97.5 545.5,97.5C 545.5,92.8333 545.5,88.1667 545.5,83.5C 550.167,83.5 554.833,83.5 559.5,83.5C 559.5,78.8333 559.5,74.1667 559.5,69.5C 564.167,69.5 568.833,69.5 573.5,69.5C 573.5,64.8333 573.5,60.1667 573.5,55.5C 578.167,55.5 582.833,55.5 587.5,55.5C 587.5,50.8333 587.5,46.1667 587.5,41.5C 596.833,41.5 606.167,41.5 615.5,41.5C 615.5,36.8333 615.5,32.1667 615.5,27.5C 620.167,27.5 624.833,27.5 629.5,27.5C 629.5,22.8333 629.5,18.1667 629.5,13.5C 638.833,13.5 648.167,13.5 657.5,13.5C 657.5,8.83333 657.5,4.16667 657.5,-0.5C 708.833,-0.5 760.167,-0.5 811.5,-0.5C 811.5,4.16667 811.5,8.83333 811.5,13.5C 820.833,13.5 830.167,13.5 839.5,13.5C 839.5,18.1667 839.5,22.8333 839.5,27.5C 844.167,27.5 848.833,27.5 853.5,27.5C 853.5,32.1667 853.5,36.8333 853.5,41.5C 858.167,41.5 862.833,41.5 867.5,41.5C 867.5,46.1667 867.5,50.8333 867.5,55.5C 872.167,55.5 876.833,55.5 881.5,55.5C 881.5,60.1667 881.5,64.8333 881.5,69.5C 886.167,69.5 890.833,69.5 895.5,69.5C 895.5,74.1667 895.5,78.8333 895.5,83.5C 900.167,83.5 904.833,83.5 909.5,83.5C 909.5,88.1667 909.5,92.8333 909.5,97.5C 914.167,97.5 918.833,97.5 923.5,97.5C 923.5,106.833 923.5,116.167 923.5,125.5C 928.167,125.5 932.833,125.5 937.5,125.5C 937.5,130.167 937.5,134.833 937.5,139.5C 942.167,139.5 946.833,139.5 951.5,139.5C 951.5,148.833 951.5,158.167 951.5,167.5C 956.167,167.5 960.833,167.5 965.5,167.5C 965.5,176.833 965.5,186.167 965.5,195.5C 970.167,195.5 974.833,195.5 979.5,195.5C 979.5,209.5 979.5,223.5 979.5,237.5C 984.167,237.5 988.833,237.5 993.5,237.5C 993.5,256.167 993.5,274.833 993.5,293.5C 998.167,293.5 1002.83,293.5 1007.5,293.5C 1007.5,377.5 1007.5,461.5 1007.5,545.5C 1002.83,545.5 998.167,545.5 993.5,545.5C 993.5,554.833 993.5,564.167 993.5,573.5C 988.833,573.5 984.167,573.5 979.5,573.5C 979.5,582.833 979.5,592.167 979.5,601.5C 974.833,601.5 970.167,601.5 965.5,601.5C 965.5,606.167 965.5,610.833 965.5,615.5C 960.833,615.5 956.167,615.5 951.5,615.5C 951.5,620.167 951.5,624.833 951.5,629.5C 946.833,629.5 942.167,629.5 937.5,629.5C 937.5,634.167 937.5,638.833 937.5,643.5C 928.167,643.5 918.833,643.5 909.5,643.5C 909.5,648.167 909.5,652.833 909.5,657.5C 890.833,657.5 872.167,657.5 853.5,657.5C 853.5,662.167 853.5,666.833 853.5,671.5C 825.5,671.5 797.5,671.5 769.5,671.5C 769.5,666.833 769.5,662.167 769.5,657.5C 760.167,657.5 750.833,657.5 741.5,657.5C 741.5,652.833 741.5,648.167 741.5,643.5C 732.167,643.5 722.833,643.5 713.5,643.5C 713.5,638.833 713.5,634.167 713.5,629.5C 708.833,629.5 704.167,629.5 699.5,629.5C 699.5,624.833 699.5,620.167 699.5,615.5C 694.833,615.5 690.167,615.5 685.5,615.5C 685.5,610.833 685.5,606.167 685.5,601.5C 680.833,601.5 676.167,601.5 671.5,601.5C 671.5,592.167 671.5,582.833 671.5,573.5C 666.833,573.5 662.167,573.5 657.5,573.5C 657.5,568.833 657.5,564.167 657.5,559.5C 652.833,559.5 648.167,559.5 643.5,559.5C 643.5,554.833 643.5,550.167 643.5,545.5C 638.833,545.5 634.167,545.5 629.5,545.5C 629.5,536.167 629.5,526.833 629.5,517.5C 624.833,517.5 620.167,517.5 615.5,517.5C 615.5,512.833 615.5,508.167 615.5,503.5C 610.833,503.5 606.167,503.5 601.5,503.5C 601.5,494.167 601.5,484.833 601.5,475.5C 596.833,475.5 592.167,475.5 587.5,475.5C 587.5,470.833 587.5,466.167 587.5,461.5C 582.833,461.5 578.167,461.5 573.5,461.5C 573.5,452.167 573.5,442.833 573.5,433.5C 568.833,433.5 564.167,433.5 559.5,433.5C 559.5,424.167 559.5,414.833 559.5,405.5C 554.833,405.5 550.167,405.5 545.5,405.5C 545.5,396.167 545.5,386.833 545.5,377.5C 540.833,377.5 536.167,377.5 531.5,377.5C 531.5,368.167 531.5,358.833 531.5,349.5C 526.833,349.5 522.167,349.5 517.5,349.5C 517.5,344.833 517.5,340.167 517.5,335.5C 508.167,335.5 498.833,335.5 489.5,335.5C 489.5,340.167 489.5,344.833 489.5,349.5C 484.833,349.5 480.167,349.5 475.5,349.5C 475.5,358.833 475.5,368.167 475.5,377.5C 470.833,377.5 466.167,377.5 461.5,377.5C 461.5,386.833 461.5,396.167 461.5,405.5C 456.833,405.5 452.167,405.5 447.5,405.5C 447.5,414.833 447.5,424.167 447.5,433.5C 442.833,433.5 438.167,433.5 433.5,433.5C 433.5,442.833 433.5,452.167 433.5,461.5C 428.833,461.5 424.167,461.5 419.5,461.5C 419.5,466.167 419.5,470.833 419.5,475.5C 414.833,475.5 410.167,475.5 405.5,475.5C 405.5,484.833 405.5,494.167 405.5,503.5C 400.833,503.5 396.167,503.5 391.5,503.5C 391.5,508.167 391.5,512.833 391.5,517.5C 386.833,517.5 382.167,517.5 377.5,517.5C 377.5,526.833 377.5,536.167 377.5,545.5C 372.833,545.5 368.167,545.5 363.5,545.5C 363.5,550.167 363.5,554.833 363.5,559.5C 358.833,559.5 354.167,559.5 349.5,559.5C 349.5,564.167 349.5,568.833 349.5,573.5C 344.833,573.5 340.167,573.5 335.5,573.5C 335.5,582.833 335.5,592.167 335.5,601.5C 330.833,601.5 326.167,601.5 321.5,601.5C 321.5,606.167 321.5,610.833 321.5,615.5C 316.833,615.5 312.167,615.5 307.5,615.5C 307.5,620.167 307.5,624.833 307.5,629.5C 302.833,629.5 298.167,629.5 293.5,629.5C 293.5,634.167 293.5,638.833 293.5,643.5C 284.167,643.5 274.833,643.5 265.5,643.5C 265.5,648.167 265.5,652.833 265.5,657.5C 256.167,657.5 246.833,657.5 237.5,657.5C 237.5,662.167 237.5,666.833 237.5,671.5C 209.5,671.5 181.5,671.5 153.5,671.5C 153.5,666.833 153.5,662.167 153.5,657.5C 134.833,657.5 116.167,657.5 97.5,657.5C 97.5,652.833 97.5,648.167 97.5,643.5C 88.1667,643.5 78.8333,643.5 69.5,643.5C 69.5,638.833 69.5,634.167 69.5,629.5C 64.8333,629.5 60.1667,629.5 55.5,629.5C 55.5,624.833 55.5,620.167 55.5,615.5C 50.8333,615.5 46.1667,615.5 41.5,615.5C 41.5,610.833 41.5,606.167 41.5,601.5C 36.8333,601.5 32.1667,601.5 27.5,601.5C 27.5,592.167 27.5,582.833 27.5,573.5C 22.8333,573.5 18.1667,573.5 13.5,573.5C 13.5,564.167 13.5,554.833 13.5,545.5C 8.83333,545.5 4.16667,545.5 -0.5,545.5C -0.5,461.5 -0.5,377.5 -0.5,293.5C 4.16667,293.5 8.83333,293.5 13.5,293.5C 13.5,274.833 13.5,256.167 13.5,237.5C 18.1667,237.5 22.8333,237.5 27.5,237.5C 27.5,223.5 27.5,209.5 27.5,195.5C 32.1667,195.5 36.8333,195.5 41.5,195.5C 41.5,186.167 41.5,176.833 41.5,167.5C 46.1667,167.5 50.8333,167.5 55.5,167.5C 55.5,158.167 55.5,148.833 55.5,139.5C 60.1667,139.5 64.8333,139.5 69.5,139.5C 69.5,134.833 69.5,130.167 69.5,125.5C 74.1667,125.5 78.8333,125.5 83.5,125.5C 83.5,116.167 83.5,106.833 83.5,97.5C 88.1667,97.5 92.8333,97.5 97.5,97.5C 97.5,92.8333 97.5,88.1667 97.5,83.5C 102.167,83.5 106.833,83.5 111.5,83.5C 111.5,78.8333 111.5,74.1667 111.5,69.5C 116.167,69.5 120.833,69.5 125.5,69.5C 125.5,64.8333 125.5,60.1667 125.5,55.5C 130.167,55.5 134.833,55.5 139.5,55.5C 139.5,50.8333 139.5,46.1667 139.5,41.5C 144.167,41.5 148.833,41.5 153.5,41.5C 153.5,36.8333 153.5,32.1667 153.5,27.5C 158.167,27.5 162.833,27.5 167.5,27.5C 167.5,22.8333 167.5,18.1667 167.5,13.5C 176.833,13.5 186.167,13.5 195.5,13.5C 195.5,8.83333 195.5,4.16667 195.5,-0.5 Z M 237.5,125.5 C 270.167,125.5 302.833,125.5 335.5,125.5C 335.5,130.167 335.5,134.833 335.5,139.5C 340.167,139.5 344.833,139.5 349.5,139.5C 349.5,144.167 349.5,148.833 349.5,153.5C 358.833,153.5 368.167,153.5 377.5,153.5C 377.5,158.167 377.5,162.833 377.5,167.5C 382.167,167.5 386.833,167.5 391.5,167.5C 391.5,172.167 391.5,176.833 391.5,181.5C 396.167,181.5 400.833,181.5 405.5,181.5C 405.5,186.167 405.5,190.833 405.5,195.5C 410.167,195.5 414.833,195.5 419.5,195.5C 419.5,200.167 419.5,204.833 419.5,209.5C 424.167,209.5 428.833,209.5 433.5,209.5C 433.5,214.167 433.5,218.833 433.5,223.5C 438.167,223.5 442.833,223.5 447.5,223.5C 447.5,232.833 447.5,242.167 447.5,251.5C 442.833,251.5 438.167,251.5 433.5,251.5C 433.5,260.833 433.5,270.167 433.5,279.5C 428.833,279.5 424.167,279.5 419.5,279.5C 419.5,288.833 419.5,298.167 419.5,307.5C 414.833,307.5 410.167,307.5 405.5,307.5C 405.5,316.833 405.5,326.167 405.5,335.5C 400.833,335.5 396.167,335.5 391.5,335.5C 391.5,340.167 391.5,344.833 391.5,349.5C 386.833,349.5 382.167,349.5 377.5,349.5C 377.5,354.167 377.5,358.833 377.5,363.5C 372.833,363.5 368.167,363.5 363.5,363.5C 363.5,368.167 363.5,372.833 363.5,377.5C 358.833,377.5 354.167,377.5 349.5,377.5C 349.5,382.167 349.5,386.833 349.5,391.5C 344.833,391.5 340.167,391.5 335.5,391.5C 335.5,400.833 335.5,410.167 335.5,419.5C 330.833,419.5 326.167,419.5 321.5,419.5C 321.5,424.167 321.5,428.833 321.5,433.5C 316.833,433.5 312.167,433.5 307.5,433.5C 307.5,442.833 307.5,452.167 307.5,461.5C 302.833,461.5 298.167,461.5 293.5,461.5C 293.5,466.167 293.5,470.833 293.5,475.5C 288.833,475.5 284.167,475.5 279.5,475.5C 279.5,484.833 279.5,494.167 279.5,503.5C 274.833,503.5 270.167,503.5 265.5,503.5C 265.5,508.167 265.5,512.833 265.5,517.5C 260.833,517.5 256.167,517.5 251.5,517.5C 251.5,522.167 251.5,526.833 251.5,531.5C 246.833,531.5 242.167,531.5 237.5,531.5C 237.5,536.167 237.5,540.833 237.5,545.5C 228.167,545.5 218.833,545.5 209.5,545.5C 209.5,550.167 209.5,554.833 209.5,559.5C 195.5,559.5 181.5,559.5 167.5,559.5C 167.5,554.833 167.5,550.167 167.5,545.5C 162.833,545.5 158.167,545.5 153.5,545.5C 153.5,540.833 153.5,536.167 153.5,531.5C 144.167,531.5 134.833,531.5 125.5,531.5C 125.5,512.833 125.5,494.167 125.5,475.5C 120.833,475.5 116.167,475.5 111.5,475.5C 111.5,442.833 111.5,410.167 111.5,377.5C 116.167,377.5 120.833,377.5 125.5,377.5C 125.5,354.167 125.5,330.833 125.5,307.5C 130.167,307.5 134.833,307.5 139.5,307.5C 139.5,293.5 139.5,279.5 139.5,265.5C 144.167,265.5 148.833,265.5 153.5,265.5C 153.5,256.167 153.5,246.833 153.5,237.5C 158.167,237.5 162.833,237.5 167.5,237.5C 167.5,228.167 167.5,218.833 167.5,209.5C 172.167,209.5 176.833,209.5 181.5,209.5C 181.5,204.833 181.5,200.167 181.5,195.5C 186.167,195.5 190.833,195.5 195.5,195.5C 195.5,190.833 195.5,186.167 195.5,181.5C 200.167,181.5 204.833,181.5 209.5,181.5C 209.5,172.167 209.5,162.833 209.5,153.5C 214.167,153.5 218.833,153.5 223.5,153.5C 223.5,148.833 223.5,144.167 223.5,139.5C 228.167,139.5 232.833,139.5 237.5,139.5C 237.5,134.833 237.5,130.167 237.5,125.5 Z M 671.5,125.5 C 704.167,125.5 736.833,125.5 769.5,125.5C 769.5,130.167 769.5,134.833 769.5,139.5C 774.167,139.5 778.833,139.5 783.5,139.5C 783.5,144.167 783.5,148.833 783.5,153.5C 788.167,153.5 792.833,153.5 797.5,153.5C 797.5,162.833 797.5,172.167 797.5,181.5C 802.167,181.5 806.833,181.5 811.5,181.5C 811.5,186.167 811.5,190.833 811.5,195.5C 816.167,195.5 820.833,195.5 825.5,195.5C 825.5,200.167 825.5,204.833 825.5,209.5C 830.167,209.5 834.833,209.5 839.5,209.5C 839.5,218.833 839.5,228.167 839.5,237.5C 844.167,237.5 848.833,237.5 853.5,237.5C 853.5,246.833 853.5,256.167 853.5,265.5C 858.167,265.5 862.833,265.5 867.5,265.5C 867.5,279.5 867.5,293.5 867.5,307.5C 872.167,307.5 876.833,307.5 881.5,307.5C 881.5,330.833 881.5,354.167 881.5,377.5C 886.167,377.5 890.833,377.5 895.5,377.5C 895.5,410.167 895.5,442.833 895.5,475.5C 890.833,475.5 886.167,475.5 881.5,475.5C 881.5,494.167 881.5,512.833 881.5,531.5C 872.167,531.5 862.833,531.5 853.5,531.5C 853.5,536.167 853.5,540.833 853.5,545.5C 848.833,545.5 844.167,545.5 839.5,545.5C 839.5,550.167 839.5,554.833 839.5,559.5C 825.5,559.5 811.5,559.5 797.5,559.5C 797.5,554.833 797.5,550.167 797.5,545.5C 788.167,545.5 778.833,545.5 769.5,545.5C 769.5,540.833 769.5,536.167 769.5,531.5C 764.833,531.5 760.167,531.5 755.5,531.5C 755.5,526.833 755.5,522.167 755.5,517.5C 750.833,517.5 746.167,517.5 741.5,517.5C 741.5,512.833 741.5,508.167 741.5,503.5C 736.833,503.5 732.167,503.5 727.5,503.5C 727.5,494.167 727.5,484.833 727.5,475.5C 722.833,475.5 718.167,475.5 713.5,475.5C 713.5,470.833 713.5,466.167 713.5,461.5C 708.833,461.5 704.167,461.5 699.5,461.5C 699.5,452.167 699.5,442.833 699.5,433.5C 694.833,433.5 690.167,433.5 685.5,433.5C 685.5,428.833 685.5,424.167 685.5,419.5C 680.833,419.5 676.167,419.5 671.5,419.5C 671.5,410.167 671.5,400.833 671.5,391.5C 666.833,391.5 662.167,391.5 657.5,391.5C 657.5,386.833 657.5,382.167 657.5,377.5C 652.833,377.5 648.167,377.5 643.5,377.5C 643.5,372.833 643.5,368.167 643.5,363.5C 638.833,363.5 634.167,363.5 629.5,363.5C 629.5,358.833 629.5,354.167 629.5,349.5C 624.833,349.5 620.167,349.5 615.5,349.5C 615.5,344.833 615.5,340.167 615.5,335.5C 610.833,335.5 606.167,335.5 601.5,335.5C 601.5,326.167 601.5,316.833 601.5,307.5C 596.833,307.5 592.167,307.5 587.5,307.5C 587.5,298.167 587.5,288.833 587.5,279.5C 582.833,279.5 578.167,279.5 573.5,279.5C 573.5,270.167 573.5,260.833 573.5,251.5C 568.833,251.5 564.167,251.5 559.5,251.5C 559.5,242.167 559.5,232.833 559.5,223.5C 564.167,223.5 568.833,223.5 573.5,223.5C 573.5,218.833 573.5,214.167 573.5,209.5C 578.167,209.5 582.833,209.5 587.5,209.5C 587.5,204.833 587.5,200.167 587.5,195.5C 592.167,195.5 596.833,195.5 601.5,195.5C 601.5,190.833 601.5,186.167 601.5,181.5C 606.167,181.5 610.833,181.5 615.5,181.5C 615.5,176.833 615.5,172.167 615.5,167.5C 620.167,167.5 624.833,167.5 629.5,167.5C 629.5,162.833 629.5,158.167 629.5,153.5C 638.833,153.5 648.167,153.5 657.5,153.5C 657.5,148.833 657.5,144.167 657.5,139.5C 662.167,139.5 666.833,139.5 671.5,139.5C 671.5,134.833 671.5,130.167 671.5,125.5 Z"/></g>
</svg>
