<?xml version="1.0" encoding="UTF-8"?>
<svg version="1.1" xmlns="http://www.w3.org/2000/svg" width="390" height="390">
<path d="M0 0 C34.32 0 68.64 0 104 0 C104 4.29 104 8.58 104 13 C116.87 13 129.74 13 143 13 C143 17.29 143 21.58 143 26 C147.29 26 151.58 26 156 26 C156 30.29 156 34.58 156 39 C164.58 39 173.16 39 182 39 C182 43.29 182 47.58 182 52 C186.29 52 190.58 52 195 52 C195 56.29 195 60.58 195 65 C199.29 65 203.58 65 208 65 C208 73.58 208 82.16 208 91 C212.29 91 216.58 91 221 91 C221 95.29 221 99.58 221 104 C225.29 104 229.58 104 234 104 C234 116.87 234 129.74 234 143 C238.29 143 242.58 143 247 143 C247 177.32 247 211.64 247 247 C242.71 247 238.42 247 234 247 C234 259.87 234 272.74 234 286 C229.71 286 225.42 286 221 286 C221 290.29 221 294.58 221 299 C216.71 299 212.42 299 208 299 C208 307.58 208 316.16 208 325 C203.71 325 199.42 325 195 325 C195 329.29 195 333.58 195 338 C190.71 338 186.42 338 182 338 C182 342.29 182 346.58 182 351 C173.42 351 164.84 351 156 351 C156 355.29 156 359.58 156 364 C151.71 364 147.42 364 143 364 C143 368.29 143 372.58 143 377 C130.13 377 117.26 377 104 377 C104 381.29 104 385.58 104 390 C69.68 390 35.36 390 0 390 C0 385.71 0 381.42 0 377 C-12.87 377 -25.74 377 -39 377 C-39 372.71 -39 368.42 -39 364 C-43.29 364 -47.58 364 -52 364 C-52 359.71 -52 355.42 -52 351 C-60.58 351 -69.16 351 -78 351 C-78 346.71 -78 342.42 -78 338 C-82.29 338 -86.58 338 -91 338 C-91 333.71 -91 329.42 -91 325 C-95.29 325 -99.58 325 -104 325 C-104 316.42 -104 307.84 -104 299 C-108.29 299 -112.58 299 -117 299 C-117 294.71 -117 290.42 -117 286 C-121.29 286 -125.58 286 -130 286 C-130 273.13 -130 260.26 -130 247 C-134.29 247 -138.58 247 -143 247 C-143 212.68 -143 178.36 -143 143 C-138.71 143 -134.42 143 -130 143 C-130 130.13 -130 117.26 -130 104 C-125.71 104 -121.42 104 -117 104 C-117 99.71 -117 95.42 -117 91 C-112.71 91 -108.42 91 -104 91 C-104 82.42 -104 73.84 -104 65 C-99.71 65 -95.42 65 -91 65 C-91 60.71 -91 56.42 -91 52 C-86.71 52 -82.42 52 -78 52 C-78 47.71 -78 43.42 -78 39 C-69.42 39 -60.84 39 -52 39 C-52 34.71 -52 30.42 -52 26 C-47.71 26 -43.42 26 -39 26 C-39 21.71 -39 17.42 -39 13 C-26.13 13 -13.26 13 0 13 C0 8.71 0 4.42 0 0 Z " fill="#000000" transform="translate(143,0)"/>
<path d="M0 0 C8.58 0 17.16 0 26 0 C26 4.29 26 8.58 26 13 C30.29 13 34.58 13 39 13 C39 17.29 39 21.58 39 26 C43.29 26 47.58 26 52 26 C52 30.29 52 34.58 52 39 C56.29 39 60.58 39 65 39 C65 43.29 65 47.58 65 52 C69.29 52 73.58 52 78 52 C78 56.29 78 60.58 78 65 C82.29 65 86.58 65 91 65 C91 69.29 91 73.58 91 78 C95.29 78 99.58 78 104 78 C104 82.29 104 86.58 104 91 C108.29 91 112.58 91 117 91 C117 95.29 117 99.58 117 104 C121.29 104 125.58 104 130 104 C130 112.58 130 121.16 130 130 C125.71 130 121.42 130 117 130 C117 125.71 117 121.42 117 117 C112.71 117 108.42 117 104 117 C104 112.71 104 108.42 104 104 C99.71 104 95.42 104 91 104 C91 99.71 91 95.42 91 91 C86.71 91 82.42 91 78 91 C78 86.71 78 82.42 78 78 C73.71 78 69.42 78 65 78 C65 73.71 65 69.42 65 65 C60.71 65 56.42 65 52 65 C52 60.71 52 56.42 52 52 C47.71 52 43.42 52 39 52 C39 47.71 39 43.42 39 39 C34.71 39 30.42 39 26 39 C26 73.32 26 107.64 26 143 C17.42 143 8.84 143 0 143 C0 95.81 0 48.62 0 0 Z " fill="#E3E3E3" transform="translate(117,130)"/>
<path d="M0 0 C8.58 0 17.16 0 26 0 C26 34.32 26 68.64 26 104 C17.42 104 8.84 104 0 104 C0 69.68 0 35.36 0 0 Z " fill="#222222" transform="translate(247,117)"/>
<path d="M0 0 C4.29 0 8.58 0 13 0 C13 4.29 13 8.58 13 13 C17.29 13 21.58 13 26 13 C26 17.29 26 21.58 26 26 C30.29 26 34.58 26 39 26 C39 30.29 39 34.58 39 39 C43.29 39 47.58 39 52 39 C52 47.58 52 56.16 52 65 C47.71 65 43.42 65 39 65 C39 60.71 39 56.42 39 52 C34.71 52 30.42 52 26 52 C26 47.71 26 43.42 26 39 C21.71 39 17.42 39 13 39 C13 34.71 13 30.42 13 26 C8.71 26 4.42 26 0 26 C0 17.42 0 8.84 0 0 Z " fill="#3A3A3A" transform="translate(247,247)"/>
<path d="M0 0 C8.58 0 17.16 0 26 0 C26 17.16 26 34.32 26 52 C17.42 52 8.84 52 0 52 C0 34.84 0 17.68 0 0 Z " fill="#E3E3E3" transform="translate(247,117)"/>
<path d="M0 0 C4.29 0 8.58 0 13 0 C13 4.29 13 8.58 13 13 C17.29 13 21.58 13 26 13 C26 21.58 26 30.16 26 39 C21.71 39 17.42 39 13 39 C13 34.71 13 30.42 13 26 C8.71 26 4.42 26 0 26 C0 17.42 0 8.84 0 0 Z " fill="#605F5F" transform="translate(247,247)"/>
<path d="M0 0 C8.58 0 17.16 0 26 0 C26 8.58 26 17.16 26 26 C17.42 26 8.84 26 0 26 C0 17.42 0 8.84 0 0 Z " fill="#605F5F" transform="translate(247,169)"/>
<path d="M0 0 C8.58 0 17.16 0 26 0 C26 8.58 26 17.16 26 26 C21.71 26 17.42 26 13 26 C13 21.71 13 17.42 13 13 C8.71 13 4.42 13 0 13 C0 8.71 0 4.42 0 0 Z " fill="#C5C5C5" transform="translate(221,234)"/>
<path d="M0 0 C4.29 0 8.58 0 13 0 C13 8.58 13 17.16 13 26 C8.71 26 4.42 26 0 26 C0 17.42 0 8.84 0 0 Z " fill="#7E7E7E" transform="translate(247,247)"/>
<path d="M0 0 C8.58 0 17.16 0 26 0 C26 4.29 26 8.58 26 13 C17.42 13 8.84 13 0 13 C0 8.71 0 4.42 0 0 Z " fill="#3A3A3A" transform="translate(247,195)"/>
<path d="M0 0 C8.58 0 17.16 0 26 0 C26 4.29 26 8.58 26 13 C17.42 13 8.84 13 0 13 C0 8.71 0 4.42 0 0 Z " fill="#7E7E7E" transform="translate(247,169)"/>
<path d="M0 0 C8.58 0 17.16 0 26 0 C26 4.29 26 8.58 26 13 C17.42 13 8.84 13 0 13 C0 8.71 0 4.42 0 0 Z " fill="#C5C5C5" transform="translate(247,156)"/>
<path d="M0 0 C4.29 0 8.58 0 13 0 C13 4.29 13 8.58 13 13 C8.71 13 4.42 13 0 13 C0 8.71 0 4.42 0 0 Z " fill="#222222" transform="translate(286,299)"/>
</svg>
