<?xml version="1.0" encoding="UTF-8"?>
<svg version="1.1" xmlns="http://www.w3.org/2000/svg" width="390" height="390">
<path d="M0 0 C17.16 0 34.32 0 52 0 C52 4.29 52 8.58 52 13 C56.29 13 60.58 13 65 13 C65 51.61 65 90.22 65 130 C60.71 130 56.42 130 52 130 C52 134.29 52 138.58 52 143 C4.81 143 -42.38 143 -91 143 C-91 147.29 -91 151.58 -91 156 C-65.26 156 -39.52 156 -13 156 C-13 173.16 -13 190.32 -13 208 C-17.29 208 -21.58 208 -26 208 C-26 212.29 -26 216.58 -26 221 C-34.58 221 -43.16 221 -52 221 C-52 225.29 -52 229.58 -52 234 C-73.45 234 -94.9 234 -117 234 C-117 229.71 -117 225.42 -117 221 C-125.58 221 -134.16 221 -143 221 C-143 182.39 -143 143.78 -143 104 C-138.71 104 -134.42 104 -130 104 C-130 99.71 -130 95.42 -130 91 C-99.97 91 -69.94 91 -39 91 C-39 86.71 -39 82.42 -39 78 C-30.42 78 -21.84 78 -13 78 C-13 73.71 -13 69.42 -13 65 C-8.71 65 -4.42 65 0 65 C0 43.55 0 22.1 0 0 Z " fill="#FEC008" transform="translate(273,117)"/>
<path d="M0 0 C17.16 0 34.32 0 52 0 C52 4.29 52 8.58 52 13 C60.58 13 69.16 13 78 13 C78 17.29 78 21.58 78 26 C82.29 26 86.58 26 91 26 C91 56.03 91 86.06 91 117 C82.42 117 73.84 117 65 117 C65 125.58 65 134.16 65 143 C34.97 143 4.94 143 -26 143 C-26 147.29 -26 151.58 -26 156 C-34.58 156 -43.16 156 -52 156 C-52 164.58 -52 173.16 -52 182 C-56.29 182 -60.58 182 -65 182 C-65 199.16 -65 216.32 -65 234 C-77.87 234 -90.74 234 -104 234 C-104 229.71 -104 225.42 -104 221 C-108.29 221 -112.58 221 -117 221 C-117 216.71 -117 212.42 -117 208 C-121.29 208 -125.58 208 -130 208 C-130 182.26 -130 156.52 -130 130 C-125.71 130 -121.42 130 -117 130 C-117 125.71 -117 121.42 -117 117 C-112.71 117 -108.42 117 -104 117 C-104 108.42 -104 99.84 -104 91 C-56.81 91 -9.62 91 39 91 C39 86.71 39 82.42 39 78 C13.26 78 -12.48 78 -39 78 C-39 56.55 -39 35.1 -39 13 C-26.13 13 -13.26 13 0 13 C0 8.71 0 4.42 0 0 Z " fill="#0277BC" transform="translate(169,39)"/>
<path d="M0 0 C8.58 0 17.16 0 26 0 C26 4.29 26 8.58 26 13 C17.42 13 8.84 13 0 13 C0 8.71 0 4.42 0 0 Z " fill="#F6F6F6" transform="translate(221,299)"/>
<path d="M0 0 C8.58 0 17.16 0 26 0 C26 4.29 26 8.58 26 13 C17.42 13 8.84 13 0 13 C0 8.71 0 4.42 0 0 Z " fill="#F6F6F6" transform="translate(156,78)"/>
</svg>
