<?xml version="1.0" encoding="UTF-8"?>
<svg version="1.1" xmlns="http://www.w3.org/2000/svg" width="390" height="299">
<path d="M0 0 C25.74 0 51.48 0 78 0 C78 4.29 78 8.58 78 13 C99.45 13 120.9 13 143 13 C143 17.29 143 21.58 143 26 C151.58 26 160.16 26 169 26 C169 30.29 169 34.58 169 39 C173.29 39 177.58 39 182 39 C182 43.29 182 47.58 182 52 C186.29 52 190.58 52 195 52 C195 56.29 195 60.58 195 65 C199.29 65 203.58 65 208 65 C208 69.29 208 73.58 208 78 C212.29 78 216.58 78 221 78 C221 90.87 221 103.74 221 117 C225.29 117 229.58 117 234 117 C234 129.87 234 142.74 234 156 C229.71 156 225.42 156 221 156 C221 164.58 221 173.16 221 182 C216.71 182 212.42 182 208 182 C208 190.58 208 199.16 208 208 C199.42 208 190.84 208 182 208 C182 220.87 182 233.74 182 247 C186.29 247 190.58 247 195 247 C195 255.58 195 264.16 195 273 C199.29 273 203.58 273 208 273 C208 277.29 208 281.58 208 286 C212.29 286 216.58 286 221 286 C221 290.29 221 294.58 221 299 C195.26 299 169.52 299 143 299 C143 294.71 143 290.42 143 286 C138.71 286 134.42 286 130 286 C130 277.42 130 268.84 130 260 C125.71 260 121.42 260 117 260 C117 255.71 117 251.42 117 247 C108.42 247 99.84 247 91 247 C91 251.29 91 255.58 91 260 C82.42 260 73.84 260 65 260 C65 272.87 65 285.74 65 299 C43.55 299 22.1 299 0 299 C0 286.13 0 273.26 0 260 C-4.29 260 -8.58 260 -13 260 C-13 255.71 -13 251.42 -13 247 C-30.16 247 -47.32 247 -65 247 C-65 242.71 -65 238.42 -65 234 C-73.58 234 -82.16 234 -91 234 C-91 229.71 -91 225.42 -91 221 C-95.29 221 -99.58 221 -104 221 C-104 216.71 -104 212.42 -104 208 C-112.58 208 -121.16 208 -130 208 C-130 199.42 -130 190.84 -130 182 C-134.29 182 -138.58 182 -143 182 C-143 173.42 -143 164.84 -143 156 C-147.29 156 -151.58 156 -156 156 C-156 138.84 -156 121.68 -156 104 C-151.71 104 -147.42 104 -143 104 C-143 95.42 -143 86.84 -143 78 C-138.71 78 -134.42 78 -130 78 C-130 73.71 -130 69.42 -130 65 C-125.71 65 -121.42 65 -117 65 C-117 60.71 -117 56.42 -117 52 C-112.71 52 -108.42 52 -104 52 C-104 47.71 -104 43.42 -104 39 C-99.71 39 -95.42 39 -91 39 C-91 34.71 -91 30.42 -91 26 C-82.42 26 -73.84 26 -65 26 C-65 21.71 -65 17.42 -65 13 C-43.55 13 -22.1 13 0 13 C0 8.71 0 4.42 0 0 Z M0 52 C0 56.29 0 60.58 0 65 C-8.58 65 -17.16 65 -26 65 C-26 69.29 -26 73.58 -26 78 C-30.29 78 -34.58 78 -39 78 C-39 82.29 -39 86.58 -39 91 C-47.58 91 -56.16 91 -65 91 C-65 99.58 -65 108.16 -65 117 C-69.29 117 -73.58 117 -78 117 C-78 134.16 -78 151.32 -78 169 C-73.71 169 -69.42 169 -65 169 C-65 173.29 -65 177.58 -65 182 C-60.71 182 -56.42 182 -52 182 C-52 186.29 -52 190.58 -52 195 C-47.71 195 -43.42 195 -39 195 C-39 199.29 -39 203.58 -39 208 C-26.13 208 -13.26 208 0 208 C0 165.1 0 122.2 0 78 C47.19 78 94.38 78 143 78 C143 82.29 143 86.58 143 91 C151.58 91 160.16 91 169 91 C169 95.29 169 99.58 169 104 C177.58 104 186.16 104 195 104 C195 99.71 195 95.42 195 91 C190.71 91 186.42 91 182 91 C182 86.71 182 82.42 182 78 C177.71 78 173.42 78 169 78 C169 73.71 169 69.42 169 65 C160.42 65 151.84 65 143 65 C143 60.71 143 56.42 143 52 C95.81 52 48.62 52 0 52 Z M195 104 C195 121.16 195 138.32 195 156 C199.29 156 203.58 156 208 156 C208 138.84 208 121.68 208 104 C203.71 104 199.42 104 195 104 Z M65 130 C65 142.87 65 155.74 65 169 C86.45 169 107.9 169 130 169 C130 156.13 130 143.26 130 130 C108.55 130 87.1 130 65 130 Z M182 169 C182 173.29 182 177.58 182 182 C186.29 182 190.58 182 195 182 C195 177.71 195 173.42 195 169 C190.71 169 186.42 169 182 169 Z M169 182 C169 186.29 169 190.58 169 195 C164.71 195 160.42 195 156 195 C156 199.29 156 203.58 156 208 C164.58 208 173.16 208 182 208 C182 199.42 182 190.84 182 182 C177.71 182 173.42 182 169 182 Z M65 208 C65 216.58 65 225.16 65 234 C73.58 234 82.16 234 91 234 C91 229.71 91 225.42 91 221 C95.29 221 99.58 221 104 221 C104 216.71 104 212.42 104 208 C91.13 208 78.26 208 65 208 Z " fill="#1F6ABF" transform="translate(156,0)"/>
<path d="M0 0 C25.74 0 51.48 0 78 0 C78 4.29 78 8.58 78 13 C99.45 13 120.9 13 143 13 C143 17.29 143 21.58 143 26 C151.58 26 160.16 26 169 26 C169 30.29 169 34.58 169 39 C173.29 39 177.58 39 182 39 C182 43.29 182 47.58 182 52 C186.29 52 190.58 52 195 52 C195 56.29 195 60.58 195 65 C199.29 65 203.58 65 208 65 C208 69.29 208 73.58 208 78 C212.29 78 216.58 78 221 78 C221 90.87 221 103.74 221 117 C225.29 117 229.58 117 234 117 C234 129.87 234 142.74 234 156 C229.71 156 225.42 156 221 156 C221 164.58 221 173.16 221 182 C216.71 182 212.42 182 208 182 C208 190.58 208 199.16 208 208 C199.42 208 190.84 208 182 208 C182 199.42 182 190.84 182 182 C186.29 182 190.58 182 195 182 C195 173.42 195 164.84 195 156 C199.29 156 203.58 156 208 156 C208 138.84 208 121.68 208 104 C203.71 104 199.42 104 195 104 C195 99.71 195 95.42 195 91 C190.71 91 186.42 91 182 91 C182 86.71 182 82.42 182 78 C177.71 78 173.42 78 169 78 C169 73.71 169 69.42 169 65 C160.42 65 151.84 65 143 65 C143 60.71 143 56.42 143 52 C95.81 52 48.62 52 0 52 C0 56.29 0 60.58 0 65 C-8.58 65 -17.16 65 -26 65 C-26 69.29 -26 73.58 -26 78 C-30.29 78 -34.58 78 -39 78 C-39 82.29 -39 86.58 -39 91 C-47.58 91 -56.16 91 -65 91 C-65 99.58 -65 108.16 -65 117 C-69.29 117 -73.58 117 -78 117 C-78 134.16 -78 151.32 -78 169 C-73.71 169 -69.42 169 -65 169 C-65 173.29 -65 177.58 -65 182 C-60.71 182 -56.42 182 -52 182 C-52 186.29 -52 190.58 -52 195 C-47.71 195 -43.42 195 -39 195 C-39 199.29 -39 203.58 -39 208 C-26.13 208 -13.26 208 0 208 C0 225.16 0 242.32 0 260 C-4.29 260 -8.58 260 -13 260 C-13 255.71 -13 251.42 -13 247 C-30.16 247 -47.32 247 -65 247 C-65 242.71 -65 238.42 -65 234 C-73.58 234 -82.16 234 -91 234 C-91 229.71 -91 225.42 -91 221 C-95.29 221 -99.58 221 -104 221 C-104 216.71 -104 212.42 -104 208 C-112.58 208 -121.16 208 -130 208 C-130 199.42 -130 190.84 -130 182 C-134.29 182 -138.58 182 -143 182 C-143 173.42 -143 164.84 -143 156 C-147.29 156 -151.58 156 -156 156 C-156 138.84 -156 121.68 -156 104 C-151.71 104 -147.42 104 -143 104 C-143 95.42 -143 86.84 -143 78 C-138.71 78 -134.42 78 -130 78 C-130 73.71 -130 69.42 -130 65 C-125.71 65 -121.42 65 -117 65 C-117 60.71 -117 56.42 -117 52 C-112.71 52 -108.42 52 -104 52 C-104 47.71 -104 43.42 -104 39 C-99.71 39 -95.42 39 -91 39 C-91 34.71 -91 30.42 -91 26 C-82.42 26 -73.84 26 -65 26 C-65 21.71 -65 17.42 -65 13 C-43.55 13 -22.1 13 0 13 C0 8.71 0 4.42 0 0 Z " fill="#BCBEC0" transform="translate(156,0)"/>
<path d="M0 0 C12.87 0 25.74 0 39 0 C39 8.58 39 17.16 39 26 C43.29 26 47.58 26 52 26 C52 30.29 52 34.58 52 39 C56.29 39 60.58 39 65 39 C65 43.29 65 47.58 65 52 C69.29 52 73.58 52 78 52 C78 56.29 78 60.58 78 65 C90.87 65 103.74 65 117 65 C117 82.16 117 99.32 117 117 C112.71 117 108.42 117 104 117 C104 112.71 104 108.42 104 104 C86.84 104 69.68 104 52 104 C52 99.71 52 95.42 52 91 C43.42 91 34.84 91 26 91 C26 86.71 26 82.42 26 78 C21.71 78 17.42 78 13 78 C13 73.71 13 69.42 13 65 C4.42 65 -4.16 65 -13 65 C-13 56.42 -13 47.84 -13 39 C-17.29 39 -21.58 39 -26 39 C-26 30.42 -26 21.84 -26 13 C-17.42 13 -8.84 13 0 13 C0 8.71 0 4.42 0 0 Z " fill="#ACADB1" transform="translate(39,143)"/>
<path d="M0 0 C17.16 0 34.32 0 52 0 C52 4.29 52 8.58 52 13 C56.29 13 60.58 13 65 13 C65 17.29 65 21.58 65 26 C69.29 26 73.58 26 78 26 C78 38.87 78 51.74 78 65 C82.29 65 86.58 65 91 65 C91 77.87 91 90.74 91 104 C86.71 104 82.42 104 78 104 C78 112.58 78 121.16 78 130 C73.71 130 69.42 130 65 130 C65 138.58 65 147.16 65 156 C56.42 156 47.84 156 39 156 C39 147.42 39 138.84 39 130 C43.29 130 47.58 130 52 130 C52 121.42 52 112.84 52 104 C56.29 104 60.58 104 65 104 C65 86.84 65 69.68 65 52 C60.71 52 56.42 52 52 52 C52 47.71 52 43.42 52 39 C47.71 39 43.42 39 39 39 C39 34.71 39 30.42 39 26 C34.71 26 30.42 26 26 26 C26 21.71 26 17.42 26 13 C17.42 13 8.84 13 0 13 C0 8.71 0 4.42 0 0 Z " fill="#95959B" transform="translate(299,52)"/>
<path d="M0 0 C8.58 0 17.16 0 26 0 C26 4.29 26 8.58 26 13 C47.45 13 68.9 13 91 13 C91 17.29 91 21.58 91 26 C99.58 26 108.16 26 117 26 C117 30.29 117 34.58 117 39 C121.29 39 125.58 39 130 39 C130 43.29 130 47.58 130 52 C91.39 52 52.78 52 13 52 C13 47.71 13 43.42 13 39 C8.71 39 4.42 39 0 39 C0 26.13 0 13.26 0 0 Z " fill="#ACADB1" transform="translate(208,0)"/>
<path d="M0 0 C17.16 0 34.32 0 52 0 C52 17.16 52 34.32 52 52 C47.71 52 43.42 52 39 52 C39 47.71 39 43.42 39 39 C21.84 39 4.68 39 -13 39 C-13 34.71 -13 30.42 -13 26 C-8.71 26 -4.42 26 0 26 C0 17.42 0 8.84 0 0 Z " fill="#A0A0A6" transform="translate(104,208)"/>
<path d="M0 0 C17.16 0 34.32 0 52 0 C52 4.29 52 8.58 52 13 C56.29 13 60.58 13 65 13 C65 17.29 65 21.58 65 26 C69.29 26 73.58 26 78 26 C78 34.58 78 43.16 78 52 C69.42 52 60.84 52 52 52 C52 47.71 52 43.42 52 39 C47.71 39 43.42 39 39 39 C39 34.71 39 30.42 39 26 C34.71 26 30.42 26 26 26 C26 21.71 26 17.42 26 13 C17.42 13 8.84 13 0 13 C0 8.71 0 4.42 0 0 Z " fill="#A0A0A6" transform="translate(299,52)"/>
<path d="M0 0 C4.29 0 8.58 0 13 0 C13 4.29 13 8.58 13 13 C17.29 13 21.58 13 26 13 C26 17.29 26 21.58 26 26 C17.42 26 8.84 26 0 26 C0 30.29 0 34.58 0 39 C-8.58 39 -17.16 39 -26 39 C-26 30.42 -26 21.84 -26 13 C-17.42 13 -8.84 13 0 13 C0 8.71 0 4.42 0 0 Z " fill="#95959B" transform="translate(247,221)"/>
<path d="M0 0 C4.29 0 8.58 0 13 0 C13 4.29 13 8.58 13 13 C8.71 13 4.42 13 0 13 C0 8.71 0 4.42 0 0 Z " fill="#95959B" transform="translate(325,208)"/>
</svg>
