<?xml version="1.0" encoding="UTF-8"?>
<svg version="1.1" xmlns="http://www.w3.org/2000/svg" width="390" height="390">
<path d="M0 0 C8.58 0 17.16 0 26 0 C26 4.29 26 8.58 26 13 C34.58 13 43.16 13 52 13 C52 17.29 52 21.58 52 26 C60.58 26 69.16 26 78 26 C78 30.29 78 34.58 78 39 C86.58 39 95.16 39 104 39 C104 34.71 104 30.42 104 26 C112.58 26 121.16 26 130 26 C130 21.71 130 17.42 130 13 C138.58 13 147.16 13 156 13 C156 8.71 156 4.42 156 0 C164.58 0 173.16 0 182 0 C182 4.29 182 8.58 182 13 C186.29 13 190.58 13 195 13 C195 21.58 195 30.16 195 39 C199.29 39 203.58 39 208 39 C208 64.74 208 90.48 208 117 C216.58 117 225.16 117 234 117 C234 121.29 234 125.58 234 130 C238.29 130 242.58 130 247 130 C247 134.29 247 138.58 247 143 C251.29 143 255.58 143 260 143 C260 147.29 260 151.58 260 156 C264.29 156 268.58 156 273 156 C273 168.87 273 181.74 273 195 C268.71 195 264.42 195 260 195 C260 199.29 260 203.58 260 208 C255.71 208 251.42 208 247 208 C247 212.29 247 216.58 247 221 C238.42 221 229.84 221 221 221 C221 225.29 221 229.58 221 234 C216.71 234 212.42 234 208 234 C208 238.29 208 242.58 208 247 C203.71 247 199.42 247 195 247 C195 272.74 195 298.48 195 325 C190.71 325 186.42 325 182 325 C182 329.29 182 333.58 182 338 C169.13 338 156.26 338 143 338 C143 333.71 143 329.42 143 325 C138.71 325 134.42 325 130 325 C130 320.71 130 316.42 130 312 C121.42 312 112.84 312 104 312 C104 303.42 104 294.84 104 286 C95.42 286 86.84 286 78 286 C78 294.58 78 303.16 78 312 C69.42 312 60.84 312 52 312 C52 316.29 52 320.58 52 325 C47.71 325 43.42 325 39 325 C39 329.29 39 333.58 39 338 C26.13 338 13.26 338 0 338 C0 333.71 0 329.42 0 325 C-4.29 325 -8.58 325 -13 325 C-13 299.26 -13 273.52 -13 247 C-17.29 247 -21.58 247 -26 247 C-26 242.71 -26 238.42 -26 234 C-30.29 234 -34.58 234 -39 234 C-39 229.71 -39 225.42 -39 221 C-47.58 221 -56.16 221 -65 221 C-65 216.71 -65 212.42 -65 208 C-69.29 208 -73.58 208 -78 208 C-78 203.71 -78 199.42 -78 195 C-82.29 195 -86.58 195 -91 195 C-91 182.13 -91 169.26 -91 156 C-86.71 156 -82.42 156 -78 156 C-78 151.71 -78 147.42 -78 143 C-73.71 143 -69.42 143 -65 143 C-65 138.71 -65 134.42 -65 130 C-60.71 130 -56.42 130 -52 130 C-52 125.71 -52 121.42 -52 117 C-43.42 117 -34.84 117 -26 117 C-26 91.26 -26 65.52 -26 39 C-21.71 39 -17.42 39 -13 39 C-13 30.42 -13 21.84 -13 13 C-8.71 13 -4.42 13 0 13 C0 8.71 0 4.42 0 0 Z M0 26 C0 34.58 0 43.16 0 52 C-4.29 52 -8.58 52 -13 52 C-13 64.87 -13 77.74 -13 91 C8.45 91 29.9 91 52 91 C52 86.71 52 82.42 52 78 C56.29 78 60.58 78 65 78 C65 73.71 65 69.42 65 65 C69.29 65 73.58 65 78 65 C78 60.71 78 56.42 78 52 C73.71 52 69.42 52 65 52 C65 47.71 65 43.42 65 39 C56.42 39 47.84 39 39 39 C39 34.71 39 30.42 39 26 C26.13 26 13.26 26 0 26 Z M143 26 C143 30.29 143 34.58 143 39 C134.42 39 125.84 39 117 39 C117 43.29 117 47.58 117 52 C112.71 52 108.42 52 104 52 C104 56.29 104 60.58 104 65 C108.29 65 112.58 65 117 65 C117 69.29 117 73.58 117 78 C121.29 78 125.58 78 130 78 C130 82.29 130 86.58 130 91 C151.45 91 172.9 91 195 91 C195 78.13 195 65.26 195 52 C190.71 52 186.42 52 182 52 C182 43.42 182 34.84 182 26 C169.13 26 156.26 26 143 26 Z M78 78 C78 82.29 78 86.58 78 91 C86.58 91 95.16 91 104 91 C104 86.71 104 82.42 104 78 C95.42 78 86.84 78 78 78 Z M65 104 C65 108.29 65 112.58 65 117 C60.71 117 56.42 117 52 117 C52 121.29 52 125.58 52 130 C47.71 130 43.42 130 39 130 C39 134.29 39 138.58 39 143 C34.71 143 30.42 143 26 143 C26 160.16 26 177.32 26 195 C30.29 195 34.58 195 39 195 C39 199.29 39 203.58 39 208 C43.29 208 47.58 208 52 208 C52 212.29 52 216.58 52 221 C56.29 221 60.58 221 65 221 C65 225.29 65 229.58 65 234 C82.16 234 99.32 234 117 234 C117 229.71 117 225.42 117 221 C121.29 221 125.58 221 130 221 C130 216.71 130 212.42 130 208 C134.29 208 138.58 208 143 208 C143 203.71 143 199.42 143 195 C147.29 195 151.58 195 156 195 C156 177.84 156 160.68 156 143 C151.71 143 147.42 143 143 143 C143 138.71 143 134.42 143 130 C138.71 130 134.42 130 130 130 C130 125.71 130 121.42 130 117 C125.71 117 121.42 117 117 117 C117 112.71 117 108.42 117 104 C99.84 104 82.68 104 65 104 Z M13 117 C13 121.29 13 125.58 13 130 C17.29 130 21.58 130 26 130 C26 125.71 26 121.42 26 117 C21.71 117 17.42 117 13 117 Z M156 117 C156 121.29 156 125.58 156 130 C160.29 130 164.58 130 169 130 C169 125.71 169 121.42 169 117 C164.71 117 160.42 117 156 117 Z M-39 130 C-39 134.29 -39 138.58 -39 143 C-43.29 143 -47.58 143 -52 143 C-52 147.29 -52 151.58 -52 156 C-56.29 156 -60.58 156 -65 156 C-65 160.29 -65 164.58 -65 169 C-69.29 169 -73.58 169 -78 169 C-78 173.29 -78 177.58 -78 182 C-73.71 182 -69.42 182 -65 182 C-65 186.29 -65 190.58 -65 195 C-60.71 195 -56.42 195 -52 195 C-52 199.29 -52 203.58 -52 208 C-39.13 208 -26.26 208 -13 208 C-13 199.42 -13 190.84 -13 182 C-8.71 182 -4.42 182 0 182 C0 177.71 0 173.42 0 169 C4.29 169 8.58 169 13 169 C13 164.71 13 160.42 13 156 C8.71 156 4.42 156 0 156 C0 151.71 0 147.42 0 143 C-4.29 143 -8.58 143 -13 143 C-13 138.71 -13 134.42 -13 130 C-21.58 130 -30.16 130 -39 130 Z M195 130 C195 134.29 195 138.58 195 143 C190.71 143 186.42 143 182 143 C182 147.29 182 151.58 182 156 C177.71 156 173.42 156 169 156 C169 160.29 169 164.58 169 169 C173.29 169 177.58 169 182 169 C182 173.29 182 177.58 182 182 C186.29 182 190.58 182 195 182 C195 190.58 195 199.16 195 208 C207.87 208 220.74 208 234 208 C234 203.71 234 199.42 234 195 C238.29 195 242.58 195 247 195 C247 190.71 247 186.42 247 182 C251.29 182 255.58 182 260 182 C260 177.71 260 173.42 260 169 C255.71 169 251.42 169 247 169 C247 164.71 247 160.42 247 156 C242.71 156 238.42 156 234 156 C234 151.71 234 147.42 234 143 C229.71 143 225.42 143 221 143 C221 138.71 221 134.42 221 130 C212.42 130 203.84 130 195 130 Z M0 195 C0 199.29 0 203.58 0 208 C4.29 208 8.58 208 13 208 C13 203.71 13 199.42 13 195 C8.71 195 4.42 195 0 195 Z M169 195 C169 199.29 169 203.58 169 208 C173.29 208 177.58 208 182 208 C182 203.71 182 199.42 182 195 C177.71 195 173.42 195 169 195 Z M13 208 C13 212.29 13 216.58 13 221 C17.29 221 21.58 221 26 221 C26 216.71 26 212.42 26 208 C21.71 208 17.42 208 13 208 Z M156 208 C156 212.29 156 216.58 156 221 C160.29 221 164.58 221 169 221 C169 216.71 169 212.42 169 208 C164.71 208 160.42 208 156 208 Z M0 234 C0 259.74 0 285.48 0 312 C12.87 312 25.74 312 39 312 C39 307.71 39 303.42 39 299 C47.58 299 56.16 299 65 299 C65 286.13 65 273.26 65 260 C56.42 260 47.84 260 39 260 C39 255.71 39 251.42 39 247 C34.71 247 30.42 247 26 247 C26 242.71 26 238.42 26 234 C17.42 234 8.84 234 0 234 Z M156 234 C156 238.29 156 242.58 156 247 C151.71 247 147.42 247 143 247 C143 251.29 143 255.58 143 260 C134.42 260 125.84 260 117 260 C117 272.87 117 285.74 117 299 C125.58 299 134.16 299 143 299 C143 303.29 143 307.58 143 312 C155.87 312 168.74 312 182 312 C182 286.26 182 260.52 182 234 C173.42 234 164.84 234 156 234 Z M78 247 C78 251.29 78 255.58 78 260 C86.58 260 95.16 260 104 260 C104 255.71 104 251.42 104 247 C95.42 247 86.84 247 78 247 Z " fill="#00D8FF" transform="translate(104,26)"/>
<path d="M0 0 C17.16 0 34.32 0 52 0 C52 4.29 52 8.58 52 13 C56.29 13 60.58 13 65 13 C65 30.16 65 47.32 65 65 C60.71 65 56.42 65 52 65 C52 69.29 52 73.58 52 78 C34.84 78 17.68 78 0 78 C0 73.71 0 69.42 0 65 C-4.29 65 -8.58 65 -13 65 C-13 47.84 -13 30.68 -13 13 C-8.71 13 -4.42 13 0 13 C0 8.71 0 4.42 0 0 Z " fill="#00D8FF" transform="translate(169,156)"/>
</svg>
