<?xml version="1.0" encoding="UTF-8"?>
<svg version="1.1" xmlns="http://www.w3.org/2000/svg" width="672" height="672">
<path d="M0 0 C64.68 0 129.36 0 196 0 C196 4.62 196 9.24 196 14 C200.62 14 205.24 14 210 14 C210 18.62 210 23.24 210 28 C214.62 28 219.24 28 224 28 C224 32.62 224 37.24 224 42 C228.62 42 233.24 42 238 42 C238 46.62 238 51.24 238 56 C242.62 56 247.24 56 252 56 C252 60.62 252 65.24 252 70 C256.62 70 261.24 70 266 70 C266 74.62 266 79.24 266 84 C270.62 84 275.24 84 280 84 C280 125.58 280 167.16 280 210 C224.56 210 169.12 210 112 210 C112 196.14 112 182.28 112 168 C102.76 168 93.52 168 84 168 C84 186.48 84 204.96 84 224 C120.96 224 157.92 224 196 224 C196 228.62 196 233.24 196 238 C200.62 238 205.24 238 210 238 C210 242.62 210 247.24 210 252 C214.62 252 219.24 252 224 252 C224 256.62 224 261.24 224 266 C228.62 266 233.24 266 238 266 C238 270.62 238 275.24 238 280 C242.62 280 247.24 280 252 280 C252 284.62 252 289.24 252 294 C256.62 294 261.24 294 266 294 C266 298.62 266 303.24 266 308 C270.62 308 275.24 308 280 308 C280 381.92 280 455.84 280 532 C275.38 532 270.76 532 266 532 C266 536.62 266 541.24 266 546 C261.38 546 256.76 546 252 546 C252 550.62 252 555.24 252 560 C247.38 560 242.76 560 238 560 C238 564.62 238 569.24 238 574 C233.38 574 228.76 574 224 574 C224 578.62 224 583.24 224 588 C219.38 588 214.76 588 210 588 C210 592.62 210 597.24 210 602 C205.38 602 200.76 602 196 602 C196 606.62 196 611.24 196 616 C131.32 616 66.64 616 0 616 C0 611.38 0 606.76 0 602 C-4.62 602 -9.24 602 -14 602 C-14 597.38 -14 592.76 -14 588 C-18.62 588 -23.24 588 -28 588 C-28 583.38 -28 578.76 -28 574 C-32.62 574 -37.24 574 -42 574 C-42 569.38 -42 564.76 -42 560 C-46.62 560 -51.24 560 -56 560 C-56 555.38 -56 550.76 -56 546 C-60.62 546 -65.24 546 -70 546 C-70 541.38 -70 536.76 -70 532 C-74.62 532 -79.24 532 -84 532 C-84 490.42 -84 448.84 -84 406 C-28.56 406 26.88 406 84 406 C84 419.86 84 433.72 84 448 C93.24 448 102.48 448 112 448 C112 424.9 112 401.8 112 378 C75.04 378 38.08 378 0 378 C0 373.38 0 368.76 0 364 C-4.62 364 -9.24 364 -14 364 C-14 359.38 -14 354.76 -14 350 C-18.62 350 -23.24 350 -28 350 C-28 345.38 -28 340.76 -28 336 C-32.62 336 -37.24 336 -42 336 C-42 331.38 -42 326.76 -42 322 C-46.62 322 -51.24 322 -56 322 C-56 317.38 -56 312.76 -56 308 C-60.62 308 -65.24 308 -70 308 C-70 303.38 -70 298.76 -70 294 C-74.62 294 -79.24 294 -84 294 C-84 224.7 -84 155.4 -84 84 C-79.38 84 -74.76 84 -70 84 C-70 79.38 -70 74.76 -70 70 C-65.38 70 -60.76 70 -56 70 C-56 65.38 -56 60.76 -56 56 C-51.38 56 -46.76 56 -42 56 C-42 51.38 -42 46.76 -42 42 C-37.38 42 -32.76 42 -28 42 C-28 37.38 -28 32.76 -28 28 C-23.38 28 -18.76 28 -14 28 C-14 23.38 -14 18.76 -14 14 C-9.38 14 -4.76 14 0 14 C0 9.38 0 4.76 0 0 Z " fill="#9D1736" transform="translate(238,28)"/>
<path d="M0 0 C64.68 0 129.36 0 196 0 C196 4.62 196 9.24 196 14 C200.62 14 205.24 14 210 14 C210 18.62 210 23.24 210 28 C214.62 28 219.24 28 224 28 C224 32.62 224 37.24 224 42 C228.62 42 233.24 42 238 42 C238 46.62 238 51.24 238 56 C242.62 56 247.24 56 252 56 C252 60.62 252 65.24 252 70 C256.62 70 261.24 70 266 70 C266 74.62 266 79.24 266 84 C270.62 84 275.24 84 280 84 C280 125.58 280 167.16 280 210 C224.56 210 169.12 210 112 210 C112 196.14 112 182.28 112 168 C102.76 168 93.52 168 84 168 C84 186.48 84 204.96 84 224 C120.96 224 157.92 224 196 224 C196 228.62 196 233.24 196 238 C200.62 238 205.24 238 210 238 C210 242.62 210 247.24 210 252 C214.62 252 219.24 252 224 252 C224 256.62 224 261.24 224 266 C228.62 266 233.24 266 238 266 C238 270.62 238 275.24 238 280 C242.62 280 247.24 280 252 280 C252 284.62 252 289.24 252 294 C256.62 294 261.24 294 266 294 C266 298.62 266 303.24 266 308 C270.62 308 275.24 308 280 308 C280 381.92 280 455.84 280 532 C275.38 532 270.76 532 266 532 C266 536.62 266 541.24 266 546 C261.38 546 256.76 546 252 546 C252 550.62 252 555.24 252 560 C247.38 560 242.76 560 238 560 C238 564.62 238 569.24 238 574 C233.38 574 228.76 574 224 574 C224 578.62 224 583.24 224 588 C219.38 588 214.76 588 210 588 C210 592.62 210 597.24 210 602 C205.38 602 200.76 602 196 602 C196 606.62 196 611.24 196 616 C131.32 616 66.64 616 0 616 C0 611.38 0 606.76 0 602 C-4.62 602 -9.24 602 -14 602 C-14 597.38 -14 592.76 -14 588 C-18.62 588 -23.24 588 -28 588 C-28 583.38 -28 578.76 -28 574 C-32.62 574 -37.24 574 -42 574 C-42 569.38 -42 564.76 -42 560 C-46.62 560 -51.24 560 -56 560 C-56 555.38 -56 550.76 -56 546 C-60.62 546 -65.24 546 -70 546 C-70 541.38 -70 536.76 -70 532 C-74.62 532 -79.24 532 -84 532 C-84 490.42 -84 448.84 -84 406 C-28.56 406 26.88 406 84 406 C84 419.86 84 433.72 84 448 C93.24 448 102.48 448 112 448 C112 424.9 112 401.8 112 378 C75.04 378 38.08 378 0 378 C0 373.38 0 368.76 0 364 C-4.62 364 -9.24 364 -14 364 C-14 359.38 -14 354.76 -14 350 C-18.62 350 -23.24 350 -28 350 C-28 345.38 -28 340.76 -28 336 C-32.62 336 -37.24 336 -42 336 C-42 331.38 -42 326.76 -42 322 C-46.62 322 -51.24 322 -56 322 C-56 317.38 -56 312.76 -56 308 C-60.62 308 -65.24 308 -70 308 C-70 303.38 -70 298.76 -70 294 C-74.62 294 -79.24 294 -84 294 C-84 224.7 -84 155.4 -84 84 C-79.38 84 -74.76 84 -70 84 C-70 79.38 -70 74.76 -70 70 C-65.38 70 -60.76 70 -56 70 C-56 65.38 -56 60.76 -56 56 C-51.38 56 -46.76 56 -42 56 C-42 51.38 -42 46.76 -42 42 C-37.38 42 -32.76 42 -28 42 C-28 37.38 -28 32.76 -28 28 C-23.38 28 -18.76 28 -14 28 C-14 23.38 -14 18.76 -14 14 C-9.38 14 -4.76 14 0 14 C0 9.38 0 4.76 0 0 Z M14 28 C14 32.62 14 37.24 14 42 C9.38 42 4.76 42 0 42 C0 46.62 0 51.24 0 56 C-4.62 56 -9.24 56 -14 56 C-14 60.62 -14 65.24 -14 70 C-18.62 70 -23.24 70 -28 70 C-28 74.62 -28 79.24 -28 84 C-32.62 84 -37.24 84 -42 84 C-42 88.62 -42 93.24 -42 98 C-46.62 98 -51.24 98 -56 98 C-56 162.68 -56 227.36 -56 294 C-51.38 294 -46.76 294 -42 294 C-42 298.62 -42 303.24 -42 308 C-37.38 308 -32.76 308 -28 308 C-28 312.62 -28 317.24 -28 322 C-23.38 322 -18.76 322 -14 322 C-14 326.62 -14 331.24 -14 336 C-9.38 336 -4.76 336 0 336 C0 340.62 0 345.24 0 350 C46.2 350 92.4 350 140 350 C140 391.58 140 433.16 140 476 C112.28 476 84.56 476 56 476 C56 462.14 56 448.28 56 434 C19.04 434 -17.92 434 -56 434 C-56 461.72 -56 489.44 -56 518 C-51.38 518 -46.76 518 -42 518 C-42 522.62 -42 527.24 -42 532 C-37.38 532 -32.76 532 -28 532 C-28 536.62 -28 541.24 -28 546 C-23.38 546 -18.76 546 -14 546 C-14 550.62 -14 555.24 -14 560 C-9.38 560 -4.76 560 0 560 C0 564.62 0 569.24 0 574 C4.62 574 9.24 574 14 574 C14 578.62 14 583.24 14 588 C69.44 588 124.88 588 182 588 C182 583.38 182 578.76 182 574 C186.62 574 191.24 574 196 574 C196 569.38 196 564.76 196 560 C200.62 560 205.24 560 210 560 C210 555.38 210 550.76 210 546 C214.62 546 219.24 546 224 546 C224 541.38 224 536.76 224 532 C228.62 532 233.24 532 238 532 C238 527.38 238 522.76 238 518 C242.62 518 247.24 518 252 518 C252 448.7 252 379.4 252 308 C247.38 308 242.76 308 238 308 C238 303.38 238 298.76 238 294 C233.38 294 228.76 294 224 294 C224 289.38 224 284.76 224 280 C219.38 280 214.76 280 210 280 C210 275.38 210 270.76 210 266 C205.38 266 200.76 266 196 266 C196 261.38 196 256.76 196 252 C149.8 252 103.6 252 56 252 C56 215.04 56 178.08 56 140 C83.72 140 111.44 140 140 140 C140 153.86 140 167.72 140 182 C176.96 182 213.92 182 252 182 C252 154.28 252 126.56 252 98 C247.38 98 242.76 98 238 98 C238 93.38 238 88.76 238 84 C233.38 84 228.76 84 224 84 C224 79.38 224 74.76 224 70 C219.38 70 214.76 70 210 70 C210 65.38 210 60.76 210 56 C205.38 56 200.76 56 196 56 C196 51.38 196 46.76 196 42 C191.38 42 186.76 42 182 42 C182 37.38 182 32.76 182 28 C126.56 28 71.12 28 14 28 Z " fill="#C6C5C5" transform="translate(238,28)"/>
<path d="M0 0 C4.62 0 9.24 0 14 0 C14 73.92 14 147.84 14 224 C9.38 224 4.76 224 0 224 C0 228.62 0 233.24 0 238 C-4.62 238 -9.24 238 -14 238 C-14 242.62 -14 247.24 -14 252 C-18.62 252 -23.24 252 -28 252 C-28 256.62 -28 261.24 -28 266 C-32.62 266 -37.24 266 -42 266 C-42 270.62 -42 275.24 -42 280 C-46.62 280 -51.24 280 -56 280 C-56 284.62 -56 289.24 -56 294 C-60.62 294 -65.24 294 -70 294 C-70 298.62 -70 303.24 -70 308 C-134.68 308 -199.36 308 -266 308 C-266 303.38 -266 298.76 -266 294 C-270.62 294 -275.24 294 -280 294 C-280 289.38 -280 284.76 -280 280 C-284.62 280 -289.24 280 -294 280 C-294 275.38 -294 270.76 -294 266 C-298.62 266 -303.24 266 -308 266 C-308 261.38 -308 256.76 -308 252 C-312.62 252 -317.24 252 -322 252 C-322 247.38 -322 242.76 -322 238 C-326.62 238 -331.24 238 -336 238 C-336 233.38 -336 228.76 -336 224 C-340.62 224 -345.24 224 -350 224 C-350 182.42 -350 140.84 -350 98 C-294.56 98 -239.12 98 -182 98 C-182 111.86 -182 125.72 -182 140 C-172.76 140 -163.52 140 -154 140 C-154 116.9 -154 93.8 -154 70 C-190.96 70 -227.92 70 -266 70 C-266 65.38 -266 60.76 -266 56 C-224.42 56 -182.84 56 -140 56 C-140 88.34 -140 120.68 -140 154 C-158.48 154 -176.96 154 -196 154 C-196 140.14 -196 126.28 -196 112 C-242.2 112 -288.4 112 -336 112 C-336 144.34 -336 176.68 -336 210 C-326.76 210 -317.52 210 -308 210 C-308 214.62 -308 219.24 -308 224 C-303.38 224 -298.76 224 -294 224 C-294 228.62 -294 233.24 -294 238 C-289.38 238 -284.76 238 -280 238 C-280 242.62 -280 247.24 -280 252 C-275.38 252 -270.76 252 -266 252 C-266 256.62 -266 261.24 -266 266 C-261.38 266 -256.76 266 -252 266 C-252 270.62 -252 275.24 -252 280 C-196.56 280 -141.12 280 -84 280 C-84 275.38 -84 270.76 -84 266 C-79.38 266 -74.76 266 -70 266 C-70 261.38 -70 256.76 -70 252 C-65.38 252 -60.76 252 -56 252 C-56 247.38 -56 242.76 -56 238 C-51.38 238 -46.76 238 -42 238 C-42 233.38 -42 228.76 -42 224 C-37.38 224 -32.76 224 -28 224 C-28 219.38 -28 214.76 -28 210 C-18.76 210 -9.52 210 0 210 C0 140.7 0 71.4 0 0 Z " fill="#949595" transform="translate(504,336)"/>
<path d="M0 0 C4.62 0 9.24 0 14 0 C14 64.68 14 129.36 14 196 C18.62 196 23.24 196 28 196 C28 200.62 28 205.24 28 210 C32.62 210 37.24 210 42 210 C42 214.62 42 219.24 42 224 C46.62 224 51.24 224 56 224 C56 228.62 56 233.24 56 238 C60.62 238 65.24 238 70 238 C70 242.62 70 247.24 70 252 C116.2 252 162.4 252 210 252 C210 293.58 210 335.16 210 378 C182.28 378 154.56 378 126 378 C126 364.14 126 350.28 126 336 C89.04 336 52.08 336 14 336 C14 363.72 14 391.44 14 420 C9.38 420 4.76 420 0 420 C0 387.66 0 355.32 0 322 C46.2 322 92.4 322 140 322 C140 335.86 140 349.72 140 364 C158.48 364 176.96 364 196 364 C196 331.66 196 299.32 196 266 C149.8 266 103.6 266 56 266 C56 261.38 56 256.76 56 252 C51.38 252 46.76 252 42 252 C42 247.38 42 242.76 42 238 C37.38 238 32.76 238 28 238 C28 233.38 28 228.76 28 224 C23.38 224 18.76 224 14 224 C14 219.38 14 214.76 14 210 C9.38 210 4.76 210 0 210 C0 140.7 0 71.4 0 0 Z " fill="#FEFCFD" transform="translate(168,126)"/>
<path d="M0 0 C4.62 0 9.24 0 14 0 C14 41.58 14 83.16 14 126 C-41.44 126 -96.88 126 -154 126 C-154 112.14 -154 98.28 -154 84 C-163.24 84 -172.48 84 -182 84 C-182 102.48 -182 120.96 -182 140 C-145.04 140 -108.08 140 -70 140 C-70 144.62 -70 149.24 -70 154 C-111.58 154 -153.16 154 -196 154 C-196 126.28 -196 98.56 -196 70 C-177.52 70 -159.04 70 -140 70 C-140 83.86 -140 97.72 -140 112 C-93.8 112 -47.6 112 0 112 C0 75.04 0 38.08 0 0 Z " fill="#959595" transform="translate(504,112)"/>
<path d="M0 0 C4.62 0 9.24 0 14 0 C14 64.68 14 129.36 14 196 C18.62 196 23.24 196 28 196 C28 200.62 28 205.24 28 210 C32.62 210 37.24 210 42 210 C42 214.62 42 219.24 42 224 C46.62 224 51.24 224 56 224 C56 228.62 56 233.24 56 238 C60.62 238 65.24 238 70 238 C70 247.24 70 256.48 70 266 C65.38 266 60.76 266 56 266 C56 261.38 56 256.76 56 252 C51.38 252 46.76 252 42 252 C42 247.38 42 242.76 42 238 C37.38 238 32.76 238 28 238 C28 233.38 28 228.76 28 224 C23.38 224 18.76 224 14 224 C14 219.38 14 214.76 14 210 C9.38 210 4.76 210 0 210 C0 140.7 0 71.4 0 0 Z " fill="#FEFCFD" transform="translate(168,126)"/>
<path d="M0 0 C4.62 0 9.24 0 14 0 C14 69.3 14 138.6 14 210 C9.38 210 4.76 210 0 210 C0 140.7 0 71.4 0 0 Z " fill="#FEFCFD" transform="translate(490,336)"/>
<path d="M0 0 C55.44 0 110.88 0 168 0 C168 4.62 168 9.24 168 14 C112.56 14 57.12 14 0 14 C0 9.38 0 4.76 0 0 Z " fill="#FEFCFD" transform="translate(252,616)"/>
<path d="M0 0 C55.44 0 110.88 0 168 0 C168 4.62 168 9.24 168 14 C112.56 14 57.12 14 0 14 C0 9.38 0 4.76 0 0 Z " fill="#FEFCFD" transform="translate(252,42)"/>
<path d="M0 0 C4.62 0 9.24 0 14 0 C14 4.62 14 9.24 14 14 C9.38 14 4.76 14 0 14 C0 9.38 0 4.76 0 0 Z " fill="#FEFCFD" transform="translate(420,602)"/>
<path d="M0 0 C4.62 0 9.24 0 14 0 C14 4.62 14 9.24 14 14 C9.38 14 4.76 14 0 14 C0 9.38 0 4.76 0 0 Z " fill="#FEFCFD" transform="translate(238,602)"/>
<path d="M0 0 C4.62 0 9.24 0 14 0 C14 4.62 14 9.24 14 14 C9.38 14 4.76 14 0 14 C0 9.38 0 4.76 0 0 Z " fill="#FEFCFD" transform="translate(434,588)"/>
<path d="M0 0 C4.62 0 9.24 0 14 0 C14 4.62 14 9.24 14 14 C9.38 14 4.76 14 0 14 C0 9.38 0 4.76 0 0 Z " fill="#FEFCFD" transform="translate(224,588)"/>
<path d="M0 0 C4.62 0 9.24 0 14 0 C14 4.62 14 9.24 14 14 C9.38 14 4.76 14 0 14 C0 9.38 0 4.76 0 0 Z " fill="#FEFCFD" transform="translate(448,574)"/>
<path d="M0 0 C4.62 0 9.24 0 14 0 C14 4.62 14 9.24 14 14 C9.38 14 4.76 14 0 14 C0 9.38 0 4.76 0 0 Z " fill="#FEFCFD" transform="translate(210,574)"/>
<path d="M0 0 C4.62 0 9.24 0 14 0 C14 4.62 14 9.24 14 14 C9.38 14 4.76 14 0 14 C0 9.38 0 4.76 0 0 Z " fill="#FEFCFD" transform="translate(462,560)"/>
<path d="M0 0 C4.62 0 9.24 0 14 0 C14 4.62 14 9.24 14 14 C9.38 14 4.76 14 0 14 C0 9.38 0 4.76 0 0 Z " fill="#FEFCFD" transform="translate(196,560)"/>
<path d="M0 0 C4.62 0 9.24 0 14 0 C14 4.62 14 9.24 14 14 C9.38 14 4.76 14 0 14 C0 9.38 0 4.76 0 0 Z " fill="#FEFCFD" transform="translate(476,546)"/>
<path d="M0 0 C4.62 0 9.24 0 14 0 C14 4.62 14 9.24 14 14 C9.38 14 4.76 14 0 14 C0 9.38 0 4.76 0 0 Z " fill="#FEFCFD" transform="translate(182,546)"/>
<path d="M0 0 C4.62 0 9.24 0 14 0 C14 4.62 14 9.24 14 14 C9.38 14 4.76 14 0 14 C0 9.38 0 4.76 0 0 Z " fill="#959595" transform="translate(224,378)"/>
<path d="M0 0 C4.62 0 9.24 0 14 0 C14 4.62 14 9.24 14 14 C9.38 14 4.76 14 0 14 C0 9.38 0 4.76 0 0 Z " fill="#FEFCFD" transform="translate(224,364)"/>
<path d="M0 0 C4.62 0 9.24 0 14 0 C14 4.62 14 9.24 14 14 C9.38 14 4.76 14 0 14 C0 9.38 0 4.76 0 0 Z " fill="#959595" transform="translate(210,364)"/>
<path d="M0 0 C4.62 0 9.24 0 14 0 C14 4.62 14 9.24 14 14 C9.38 14 4.76 14 0 14 C0 9.38 0 4.76 0 0 Z " fill="#FEFCFD" transform="translate(210,350)"/>
<path d="M0 0 C4.62 0 9.24 0 14 0 C14 4.62 14 9.24 14 14 C9.38 14 4.76 14 0 14 C0 9.38 0 4.76 0 0 Z " fill="#959595" transform="translate(196,350)"/>
<path d="M0 0 C4.62 0 9.24 0 14 0 C14 4.62 14 9.24 14 14 C9.38 14 4.76 14 0 14 C0 9.38 0 4.76 0 0 Z " fill="#FEFCFD" transform="translate(196,336)"/>
<path d="M0 0 C4.62 0 9.24 0 14 0 C14 4.62 14 9.24 14 14 C9.38 14 4.76 14 0 14 C0 9.38 0 4.76 0 0 Z " fill="#959595" transform="translate(182,336)"/>
<path d="M0 0 C4.62 0 9.24 0 14 0 C14 4.62 14 9.24 14 14 C9.38 14 4.76 14 0 14 C0 9.38 0 4.76 0 0 Z " fill="#959595" transform="translate(490,322)"/>
<path d="M0 0 C4.62 0 9.24 0 14 0 C14 4.62 14 9.24 14 14 C9.38 14 4.76 14 0 14 C0 9.38 0 4.76 0 0 Z " fill="#FEFCFD" transform="translate(476,322)"/>
<path d="M0 0 C4.62 0 9.24 0 14 0 C14 4.62 14 9.24 14 14 C9.38 14 4.76 14 0 14 C0 9.38 0 4.76 0 0 Z " fill="#FEFCFD" transform="translate(182,322)"/>
<path d="M0 0 C4.62 0 9.24 0 14 0 C14 4.62 14 9.24 14 14 C9.38 14 4.76 14 0 14 C0 9.38 0 4.76 0 0 Z " fill="#959595" transform="translate(168,322)"/>
<path d="M0 0 C4.62 0 9.24 0 14 0 C14 4.62 14 9.24 14 14 C9.38 14 4.76 14 0 14 C0 9.38 0 4.76 0 0 Z " fill="#959595" transform="translate(476,308)"/>
<path d="M0 0 C4.62 0 9.24 0 14 0 C14 4.62 14 9.24 14 14 C9.38 14 4.76 14 0 14 C0 9.38 0 4.76 0 0 Z " fill="#FEFCFD" transform="translate(462,308)"/>
<path d="M0 0 C4.62 0 9.24 0 14 0 C14 4.62 14 9.24 14 14 C9.38 14 4.76 14 0 14 C0 9.38 0 4.76 0 0 Z " fill="#959595" transform="translate(462,294)"/>
<path d="M0 0 C4.62 0 9.24 0 14 0 C14 4.62 14 9.24 14 14 C9.38 14 4.76 14 0 14 C0 9.38 0 4.76 0 0 Z " fill="#959595" transform="translate(448,280)"/>
<path d="M0 0 C4.62 0 9.24 0 14 0 C14 4.62 14 9.24 14 14 C9.38 14 4.76 14 0 14 C0 9.38 0 4.76 0 0 Z " fill="#959595" transform="translate(434,266)"/>
<path d="M0 0 C4.62 0 9.24 0 14 0 C14 4.62 14 9.24 14 14 C9.38 14 4.76 14 0 14 C0 9.38 0 4.76 0 0 Z " fill="#FEFCFD" transform="translate(182,112)"/>
<path d="M0 0 C4.62 0 9.24 0 14 0 C14 4.62 14 9.24 14 14 C9.38 14 4.76 14 0 14 C0 9.38 0 4.76 0 0 Z " fill="#FEFCFD" transform="translate(462,98)"/>
<path d="M0 0 C4.62 0 9.24 0 14 0 C14 4.62 14 9.24 14 14 C9.38 14 4.76 14 0 14 C0 9.38 0 4.76 0 0 Z " fill="#FEFCFD" transform="translate(196,98)"/>
<path d="M0 0 C4.62 0 9.24 0 14 0 C14 4.62 14 9.24 14 14 C9.38 14 4.76 14 0 14 C0 9.38 0 4.76 0 0 Z " fill="#FEFCFD" transform="translate(448,84)"/>
<path d="M0 0 C4.62 0 9.24 0 14 0 C14 4.62 14 9.24 14 14 C9.38 14 4.76 14 0 14 C0 9.38 0 4.76 0 0 Z " fill="#FEFCFD" transform="translate(210,84)"/>
<path d="M0 0 C4.62 0 9.24 0 14 0 C14 4.62 14 9.24 14 14 C9.38 14 4.76 14 0 14 C0 9.38 0 4.76 0 0 Z " fill="#FEFCFD" transform="translate(434,70)"/>
<path d="M0 0 C4.62 0 9.24 0 14 0 C14 4.62 14 9.24 14 14 C9.38 14 4.76 14 0 14 C0 9.38 0 4.76 0 0 Z " fill="#FEFCFD" transform="translate(224,70)"/>
<path d="M0 0 C4.62 0 9.24 0 14 0 C14 4.62 14 9.24 14 14 C9.38 14 4.76 14 0 14 C0 9.38 0 4.76 0 0 Z " fill="#FEFCFD" transform="translate(420,56)"/>
<path d="M0 0 C4.62 0 9.24 0 14 0 C14 4.62 14 9.24 14 14 C9.38 14 4.76 14 0 14 C0 9.38 0 4.76 0 0 Z " fill="#FEFCFD" transform="translate(238,56)"/>
</svg>
