<?xml version="1.0" encoding="UTF-8"?>
<svg version="1.1" xmlns="http://www.w3.org/2000/svg" width="260" height="156">
<path d="M0 0 C17.16 0 34.32 0 52 0 C52 4.29 52 8.58 52 13 C60.58 13 69.16 13 78 13 C78 17.29 78 21.58 78 26 C82.29 26 86.58 26 91 26 C91 30.29 91 34.58 91 39 C95.29 39 99.58 39 104 39 C104 43.29 104 47.58 104 52 C116.87 52 129.74 52 143 52 C143 56.29 143 60.58 143 65 C138.71 65 134.42 65 130 65 C130 69.29 130 73.58 130 78 C104.26 78 78.52 78 52 78 C52 73.71 52 69.42 52 65 C47.71 65 43.42 65 39 65 C39 60.71 39 56.42 39 52 C34.71 52 30.42 52 26 52 C26 47.71 26 43.42 26 39 C8.84 39 -8.32 39 -26 39 C-26 30.42 -26 21.84 -26 13 C-17.42 13 -8.84 13 0 13 C0 8.71 0 4.42 0 0 Z " fill="#37BDF8" transform="translate(104,0)"/>
<path d="M0 0 C25.74 0 51.48 0 78 0 C78 4.29 78 8.58 78 13 C82.29 13 86.58 13 91 13 C91 17.29 91 21.58 91 26 C95.29 26 99.58 26 104 26 C104 30.29 104 34.58 104 39 C121.16 39 138.32 39 156 39 C156 43.29 156 47.58 156 52 C151.71 52 147.42 52 143 52 C143 56.29 143 60.58 143 65 C138.71 65 134.42 65 130 65 C130 69.29 130 73.58 130 78 C112.84 78 95.68 78 78 78 C78 73.71 78 69.42 78 65 C69.42 65 60.84 65 52 65 C52 60.71 52 56.42 52 52 C47.71 52 43.42 52 39 52 C39 47.71 39 43.42 39 39 C34.71 39 30.42 39 26 39 C26 34.71 26 30.42 26 26 C13.13 26 0.26 26 -13 26 C-13 21.71 -13 17.42 -13 13 C-8.71 13 -4.42 13 0 13 C0 8.71 0 4.42 0 0 Z " fill="#37BDF8" transform="translate(26,78)"/>
<path d="M0 0 C4.29 0 8.58 0 13 0 C13 4.29 13 8.58 13 13 C8.71 13 4.42 13 0 13 C0 8.71 0 4.42 0 0 Z " fill="#39BEF8" transform="translate(182,104)"/>
<path d="M0 0 C4.29 0 8.58 0 13 0 C13 4.29 13 8.58 13 13 C8.71 13 4.42 13 0 13 C0 8.71 0 4.42 0 0 Z " fill="#39BEF8" transform="translate(0,104)"/>
<path d="M0 0 C4.29 0 8.58 0 13 0 C13 4.29 13 8.58 13 13 C8.71 13 4.42 13 0 13 C0 8.71 0 4.42 0 0 Z " fill="#39BEF8" transform="translate(247,39)"/>
<path d="M0 0 C4.29 0 8.58 0 13 0 C13 4.29 13 8.58 13 13 C8.71 13 4.42 13 0 13 C0 8.71 0 4.42 0 0 Z " fill="#39BEF8" transform="translate(65,39)"/>
</svg>
